<svg width="297" height="50" viewBox="0 0 297 50" fill="none" xmlns="http://www.w3.org/2000/svg">
<path fill-rule="evenodd" clip-rule="evenodd" d="M61.6217 7.06764L61.6143 7.09449C58.7996 10.5316 55.8554 13.8713 52.8388 17.1533C49.8078 20.443 46.6731 23.6455 43.4385 26.7535C39.4279 26.3936 34.699 26.4627 30.481 26.7935C21.8913 27.4733 12.9673 29.5053 6.44439 35.1396C4.05879 37.2007 1.93057 39.7707 1.18915 42.8024C0.313281 46.6119 2.55675 48.7966 6.31378 49.2328C10.6432 49.818 15.061 48.7893 18.9832 47.0699C28.7868 42.7551 37.1461 35.3468 44.3298 28.0985C48.2341 28.4386 52.1728 28.8616 55.9448 29.8981C55.891 30.1884 55.8351 30.4789 55.7792 30.7697C55.4295 32.5885 55.0776 34.4183 55.209 36.2774C55.3281 38.433 55.9428 40.6104 57.2642 42.3989C58.6395 44.1946 60.9329 45.0634 63.1802 45.4014C65.4544 45.7104 67.8861 44.9979 69.5034 43.4385C71.3166 43.9074 73.7829 43.2022 75.5615 42.3043C76.8943 41.7141 78.6223 40.5589 80.0104 39.6311L80.0117 39.6302L80.0126 39.6296C80.3074 39.4326 80.5868 39.2458 80.8438 39.077C84.1553 40.0377 87.5251 41.5108 90.8282 42.9547L90.8283 42.9548L90.8285 42.9548C92.5172 43.6931 94.1886 44.4237 95.8257 45.0743C96.099 45.1873 96.3921 45.3116 96.6982 45.4413C98.0357 46.0084 99.6206 46.6803 100.877 46.979C107.792 49.091 114.676 48.9165 119.463 43.0859L120.187 42.1401C120.877 45.0855 124.34 44.1061 126.312 42.8787C128.063 41.8291 129.367 40.3121 130.661 38.8054L130.662 38.8051C130.895 38.5339 131.127 38.2631 131.362 37.9953C131.216 38.7098 131.15 39.4435 131.199 40.1742C131.299 42.9986 133.35 44.7398 136.319 43.7366C139.308 42.6587 141.195 40.0515 142.949 37.6283L143.113 37.4006C142.922 37.9215 142.706 38.5387 142.558 38.9928C141.095 45.7977 146.926 44.8998 150.679 41.2974C151.846 40.2784 152.915 39.1371 153.828 37.925C153.341 39.6335 152.724 42.1037 153.86 43.5512C154.014 43.7656 154.306 43.9474 154.598 43.8202C154.761 43.747 154.832 43.5626 154.9 43.3891C154.922 43.33 154.945 43.2721 154.97 43.2204C155.261 42.2073 155.83 41.2922 156.397 40.3788C156.579 40.0861 156.761 39.7936 156.933 39.4981C157.582 38.4039 158.251 37.3316 159.061 36.3392C160.612 34.4015 162.45 32.6736 164.427 31.1255C163.731 32.6034 163.217 34.1966 163.011 35.783C161.935 40.3305 164.267 44.2346 168.984 45.6595C176.072 47.6152 183.601 47.7897 190.923 47.3244C199.197 46.7266 207.444 45.5888 215.692 44.4509C230.818 42.3642 245.947 40.2771 261.243 41.5192C266.765 41.9256 272.26 42.5694 277.757 43.2133L277.757 43.2133C282.447 43.7628 287.137 44.3122 291.844 44.7142C293.36 44.8633 294.877 44.9938 296.397 45.0997L296.4 45.052L296.408 45.0525L296.412 44.9725L296.406 44.972L296.408 44.9325C294.844 44.8344 293.283 44.7148 291.723 44.579C286.959 44.1123 282.213 43.463 277.467 42.8138C268.594 41.5998 259.722 40.386 250.736 40.3669C239.122 40.3315 227.625 41.7248 216.126 43.1183C206.362 44.3016 196.596 45.4852 186.755 45.794C181.039 45.834 175.211 45.3833 169.726 43.7984C162.334 41.5955 165.515 33.1367 168.915 28.8619C168.924 28.847 168.934 28.8318 168.944 28.8163C168.961 28.7902 168.98 28.7631 168.998 28.7352C169.212 28.4154 169.499 27.9866 169.088 27.7313C168.675 27.55 168.232 27.6399 167.81 27.7256L167.782 27.7313C167.574 27.7859 167.363 27.8549 167.175 27.964L166.622 28.2839L166.596 28.2987C166.235 28.5047 165.868 28.7146 165.523 28.9418C161.954 31.2574 158.977 34.3726 156.822 37.9168L155.482 39.9966C155.388 40.0138 155.318 39.9499 155.289 39.8507C155.262 39.7598 155.251 39.618 155.251 39.5308C155.47 37.9023 156.312 36.4532 157.144 35.021L157.144 35.0209L157.144 35.0207C157.404 34.5732 157.663 34.1274 157.901 33.6783C158.374 32.8034 158.985 31.9474 159.566 31.1311L159.567 31.1309L159.567 31.1307L159.691 30.9557C159.814 30.7994 159.934 30.6384 160.056 30.4764C160.586 29.7678 161.133 29.0382 161.908 28.5856C161.966 28.5492 162.027 28.4983 162.039 28.4184C162.05 28.3384 162.004 28.2766 161.966 28.2293C160.475 27.1134 158.378 29.1745 157.467 30.2686C156.468 31.8208 155.604 33.5111 154.836 35.1324L153.195 37.3061C151.521 39.3745 149.63 41.6319 146.972 42.5334C146.292 42.6933 145.374 42.8387 144.898 42.2316C144.023 40.8475 144.982 38.6693 145.708 37.0216C145.856 36.6875 145.993 36.3751 146.104 36.0956C147.345 33.4675 148.758 30.872 150.71 28.651C150.883 28.4802 151.125 28.1785 150.99 27.9022C150.929 27.804 150.825 27.7641 150.733 27.7386C150.353 27.6586 149.969 27.7095 149.611 27.8259C148.897 28.0658 148.336 28.5747 147.856 29.1054C146.824 30.2613 145.913 31.6187 145.021 32.947C144.611 33.5569 144.206 34.1608 143.795 34.7361C143.546 35.0504 143.298 35.3679 143.048 35.6869C141.219 38.0236 139.329 40.4364 136.923 42.2244C136.077 42.7987 134.89 43.2895 133.869 42.8896C132.34 42.0317 133.288 39.3454 133.765 38.0804C134.299 36.779 135.029 35.5577 135.832 34.3872C137.046 32.6423 138.379 30.9447 140.053 29.5707C141.632 28.1094 144.31 27.4006 145.758 29.4035C145.862 29.5452 145.954 29.6943 146.039 29.847C146.067 29.8913 146.091 29.9432 146.115 29.9964C146.171 30.1174 146.23 30.2455 146.35 30.3086C146.453 30.3668 146.584 30.3122 146.661 30.2432C146.851 30.0726 146.809 29.8075 146.772 29.5764C146.765 29.5317 146.758 29.4883 146.753 29.4471C146.611 27.9785 145.228 26.8989 143.73 26.7281C140.115 26.3318 136.508 29.1599 134.437 31.7299C133.592 32.8641 132.808 34.1291 132.247 35.3723L130.661 37.4842C129.028 39.4944 127.207 41.6573 124.607 42.5297C123.358 42.8678 122.286 42.6497 122.206 41.2393C122.116 40.2306 122.473 39.2597 122.82 38.315L122.823 38.3083L122.831 38.2875C122.853 38.2269 122.875 38.1663 122.897 38.1058C123.681 36.0738 124.676 34.1182 125.786 32.2279C126.535 30.9738 127.376 29.767 128.352 28.6583C128.544 28.4838 128.84 28.0549 128.556 27.8186C125.906 26.9036 123.392 31.8705 122.267 34.0912C122.19 34.2437 122.12 34.3833 122.056 34.5071C121.526 35.5115 121.154 36.5775 120.782 37.6426L120.782 37.6426C120.378 38.8018 119.973 39.9597 119.367 41.0357C117.596 44.1364 113.866 45.9067 110.251 46.2339C105.303 46.6374 100.451 44.9834 95.9717 43.144C95.2224 42.8375 94.4134 42.5003 93.5663 42.1473L93.5661 42.1473C89.951 40.6408 85.6426 38.8456 82.3287 37.9021C84.7316 35.8798 86.4417 33.2904 88.1371 30.7232L88.1375 30.7226L88.1377 30.7223C88.5606 30.082 88.9826 29.443 89.4142 28.8146C89.9739 27.9523 90.7159 26.7834 91.5501 25.469C93.9795 21.6417 97.1913 16.5815 98.9643 14.2707C101.58 10.8464 105.399 5.88092 110.043 5.16845C110.769 5.0594 111.538 4.98306 112.26 5.15391C112.494 5.2157 112.717 5.33203 112.809 5.52832C112.816 5.53947 112.823 5.55066 112.83 5.56188C112.838 5.57429 112.846 5.58674 112.854 5.5992C112.988 5.81422 113.126 6.03459 113.382 6.17536C114.603 6.4589 113.727 4.53958 113.274 4.21969C112.452 3.40544 111.196 3.20551 110.059 3.19097C107.735 3.12554 105.476 3.94343 103.628 5.24115C100.812 7.14593 98.6992 9.8068 96.813 12.5149C94.9191 15.234 93.2673 18.0948 91.673 20.9737C91.5186 21.2505 91.3588 21.5371 91.1946 21.832L91.1913 21.8378C89.3575 25.1291 86.9559 29.4395 85.0002 32.337C83.7748 34.1618 82.4187 35.9284 80.7131 37.3716C79.5337 36.9935 77.5707 36.7572 76.1186 36.6264C73.0453 36.3792 69.4573 36.6409 67.4213 39.1237C66.2668 40.3518 66.7835 42.183 68.1926 42.9816C67.5177 43.5761 66.7044 44.0061 65.8155 44.2418C63.1188 44.9834 59.7536 43.8929 58.5781 41.3738C56.9413 38.1135 57.7437 34.4233 58.4817 31.0292L58.5233 30.8378L58.9392 31.0902C59.0032 31.1305 59.0488 31.1954 59.0943 31.2601C59.1716 31.3701 59.2486 31.4796 59.4155 31.4682C59.5461 31.4537 59.6383 31.3846 59.719 31.3228C59.888 31.1956 60.0186 30.9884 60.0033 30.7775C60.0023 30.7642 60.0015 30.7509 60.0008 30.7374C59.9959 30.6489 59.9908 30.5577 59.9095 30.4639C59.6596 30.05 59.2108 29.8183 58.7848 29.6029C60.9996 21.8467 64.7911 14.5714 68.8312 7.53488C69.9567 5.63737 71.1054 3.7435 72.4 1.94414C73.6753 0.464665 70.2948 1.06445 69.7109 1.47521C69.162 1.74857 68.8411 2.25541 68.5308 2.74551L68.5307 2.74566L68.5306 2.74579C68.4696 2.84215 68.409 2.93786 68.3471 3.03103C67.4307 4.4754 66.3834 6.43774 65.4375 8.21011C65.067 8.90442 64.712 9.56959 64.3865 10.163C61.9394 14.994 59.5039 19.8759 57.5716 24.9178C57.0772 26.1356 56.6384 27.4201 56.2661 28.6816C54.5106 28.1907 52.718 27.8438 50.918 27.5605C49.1391 27.2811 47.3529 27.0706 45.563 26.8953C49.9829 22.4046 54.2956 17.4428 58.3322 12.6313C59.7093 11.0752 62.4685 7.59673 64.3686 5.20149L64.3689 5.20113C64.8433 4.60301 65.2642 4.07245 65.5966 3.65626C66.1075 3.18733 65.2009 2.56937 64.7822 3.06374C64.3008 3.72057 63.3349 4.94682 62.7298 5.68666C62.7282 5.27127 62.471 4.85994 62.1776 4.56139C58.797 1.65697 43.8496 3.0492 39.3434 3.82711L39.1306 3.86457C36.5903 4.31137 33.8142 4.79965 31.9869 6.68791C29.9816 8.99254 31.4106 11.4208 33.8077 12.6785L34.0267 12.8021C34.0805 12.8457 34.2303 12.893 34.3264 12.8457C34.7028 12.6967 34.7797 12.1078 34.4032 11.9515C31.4951 10.3739 31.6488 8.64358 34.4262 7.20409C36.7619 5.93545 39.4087 5.34293 42.0402 4.91036C45.7358 4.32511 49.4544 3.83074 53.196 3.98705C53.383 3.99808 53.5974 4.00844 53.8335 4.01983C56.3192 4.13981 61.2006 4.37542 61.5514 6.74243V6.73516L61.6217 7.06764ZM17.2891 30.8466C25.1352 27.6901 33.9108 27.4245 42.3109 27.9285L35.4404 34.3326C28.6217 40.236 18.7412 48.1386 8.96829 47.3135C4.53514 46.91 4.13562 43.3222 5.94115 40.1415C8.29986 35.8048 12.6677 32.795 17.2891 30.8466ZM79.3609 38.5991C76.7651 37.983 73.857 37.6776 71.3743 38.7965C70.5637 39.1855 69.8876 39.7961 69.3728 40.505C69.15 40.7231 69.0885 41.0611 69.077 41.3774C69.0584 41.6832 69.1153 41.9957 69.3204 42.2198C69.4655 42.2172 69.6161 42.2466 69.7531 42.308C69.8876 42.375 70.0188 42.4666 70.0747 42.6057C70.7109 42.7328 71.4008 42.6148 72.035 42.4897C73.3296 42.1553 74.628 41.6791 75.7805 41.0212L77.5092 39.9997V40.0033C78.1587 39.5749 78.7759 39.1057 79.3609 38.5991ZM129.063 20.9992C128.89 21.7553 129.516 22.6749 130.388 22.6168V22.6204C130.987 22.624 131.767 22.3405 131.971 21.8062C132.02 21.694 132.097 21.5462 132.186 21.377L132.186 21.3766C132.568 20.6466 133.16 19.5168 132.605 19.1126C132.401 18.9999 132.167 19.0108 131.967 19.058C131.579 19.1744 131.203 19.3052 130.845 19.4906C130.73 19.562 130.61 19.6317 130.488 19.702L130.488 19.7021C129.913 20.0359 129.313 20.3836 129.063 20.9992Z" fill="#D3AE29"/>
<path d="M61.6143 7.09449L62.0011 7.41128L62.0683 7.32925L62.0964 7.22701L61.6143 7.09449ZM61.6217 7.06764L62.1038 7.20016L62.136 7.08306L62.1109 6.96424L61.6217 7.06764ZM52.8388 17.1533L53.2065 17.4921L53.2069 17.4916L52.8388 17.1533ZM43.4385 26.7535L43.3938 27.2515L43.6207 27.2719L43.7849 27.114L43.4385 26.7535ZM30.481 26.7935L30.4419 26.295L30.4415 26.2951L30.481 26.7935ZM6.44439 35.1396L6.11755 34.7612L6.11751 34.7613L6.44439 35.1396ZM1.18915 42.8024L0.703421 42.6836L0.701868 42.6903L1.18915 42.8024ZM6.31378 49.2328L6.38077 48.7372L6.37145 48.7361L6.31378 49.2328ZM18.9832 47.0699L19.184 47.5279L19.1846 47.5276L18.9832 47.0699ZM44.3298 28.0985L44.3731 27.6004L44.1396 27.58L43.9746 27.7465L44.3298 28.0985ZM55.9448 29.8981L56.4364 29.9893L56.5202 29.5377L56.0773 29.416L55.9448 29.8981ZM55.7792 30.7697L55.2882 30.6753V30.6753L55.7792 30.7697ZM55.209 36.2774L55.7083 36.2498L55.7078 36.2421L55.209 36.2774ZM57.2642 42.3989L56.8621 42.696L56.8673 42.7029L57.2642 42.3989ZM63.1802 45.4014L63.1059 45.8959L63.1129 45.8969L63.1802 45.4014ZM69.5034 43.4385L69.6286 42.9544L69.3578 42.8844L69.1564 43.0786L69.5034 43.4385ZM75.5615 42.3043L75.3591 41.8472L75.3475 41.8523L75.3362 41.858L75.5615 42.3043ZM80.0104 39.6311L79.7338 39.2145L79.7325 39.2154L80.0104 39.6311ZM80.0117 39.6302L80.2882 40.0468L80.2902 40.0455L80.0117 39.6302ZM80.0126 39.6296L79.7348 39.2139L79.7341 39.2144L80.0126 39.6296ZM80.8438 39.077L80.9831 38.5968L80.7617 38.5325L80.5692 38.6591L80.8438 39.077ZM90.8282 42.9547L90.628 43.4129L90.6352 43.416L90.6425 43.419L90.8282 42.9547ZM90.8285 42.9548L91.0287 42.4967L91.0215 42.4935L91.0142 42.4906L90.8285 42.9548ZM95.8257 45.0743L96.0169 44.6122L96.0104 44.6096L95.8257 45.0743ZM96.6982 45.4413L96.8933 44.981H96.8933L96.6982 45.4413ZM100.877 46.979L101.023 46.5009L101.008 46.4963L100.993 46.4926L100.877 46.979ZM119.463 43.0859L119.849 43.4031L119.855 43.3966L119.86 43.3899L119.463 43.0859ZM120.187 42.1401L120.674 42.026L120.433 40.997L119.79 41.836L120.187 42.1401ZM126.312 42.8787L126.055 42.4498L126.048 42.4542L126.312 42.8787ZM130.661 38.8054L131.041 39.1312L131.05 39.1201L131.059 39.1084L130.661 38.8054ZM130.662 38.8051L130.282 38.4793L130.273 38.4904L130.264 38.5021L130.662 38.8051ZM131.362 37.9953L131.852 38.0958L132.231 36.2476L130.987 37.6654L131.362 37.9953ZM131.199 40.1742L131.698 40.1565L131.698 40.1486L131.698 40.1406L131.199 40.1742ZM136.319 43.7366L136.48 44.2104L136.489 44.2069L136.319 43.7366ZM142.949 37.6283L142.544 37.3351L142.543 37.3351L142.949 37.6283ZM143.113 37.4006L143.583 37.5726L142.708 37.1074L143.113 37.4006ZM142.558 38.9928L142.083 38.8382L142.075 38.8626L142.069 38.8877L142.558 38.9928ZM150.679 41.2974L150.35 40.9208L150.341 40.9285L150.333 40.9367L150.679 41.2974ZM153.828 37.925L154.309 38.0619L153.428 37.6243L153.828 37.925ZM153.86 43.5512L154.266 43.26L154.26 43.2511L154.253 43.2424L153.86 43.5512ZM154.598 43.8202L154.797 44.2786L154.802 44.2764L154.598 43.8202ZM154.9 43.3891L155.366 43.5698L155.366 43.5697L154.9 43.3891ZM154.97 43.2204L155.419 43.4406L155.439 43.4009L155.451 43.3584L154.97 43.2204ZM156.397 40.3788L156.822 40.6426L156.822 40.6426L156.397 40.3788ZM156.933 39.4981L156.503 39.2429L156.501 39.2461L156.933 39.4981ZM159.061 36.3392L159.449 36.6555L159.452 36.6516L159.061 36.3392ZM164.427 31.1255L164.879 31.3385L164.118 30.7318L164.427 31.1255ZM163.011 35.783L163.497 35.8981L163.503 35.8731L163.506 35.8475L163.011 35.783ZM168.984 45.6595L168.84 46.1383L168.851 46.1415L168.984 45.6595ZM190.923 47.3244L190.955 47.8234L190.959 47.8231L190.923 47.3244ZM215.692 44.4509L215.624 43.9556L215.692 44.4509ZM261.243 41.5192L261.202 42.0175L261.206 42.0178L261.243 41.5192ZM277.757 43.2133L277.698 43.7099L277.705 43.7106L277.757 43.2133ZM277.757 43.2133L277.815 42.7167L277.809 42.716L277.757 43.2133ZM291.844 44.7142L291.893 44.2166L291.887 44.216L291.844 44.7142ZM296.397 45.0997L296.362 45.5985L296.861 45.6333L296.896 45.1341L296.397 45.0997ZM296.4 45.052L296.431 44.5529L295.936 44.5223L295.901 45.0175L296.4 45.052ZM296.408 45.0525L296.378 45.5515L296.883 45.5828L296.908 45.0765L296.408 45.0525ZM296.412 44.9725L296.912 44.9965L296.935 44.5072L296.446 44.4737L296.412 44.9725ZM296.406 44.972L295.907 44.9378L295.873 45.4366L296.371 45.4709L296.406 44.972ZM296.408 44.9325L296.907 44.9668L296.942 44.465L296.44 44.4335L296.408 44.9325ZM291.723 44.579L291.674 45.0766L291.679 45.0771L291.723 44.579ZM277.467 42.8138L277.535 42.3184L277.467 42.8138ZM250.736 40.3669L250.735 40.8668L250.735 40.8669L250.736 40.3669ZM216.126 43.1183L216.187 43.6146L216.126 43.1183ZM186.755 45.794L186.759 46.2942L186.771 46.2938L186.755 45.794ZM169.726 43.7984L169.583 44.2775L169.587 44.2787L169.726 43.7984ZM168.915 28.8619L169.306 29.1731L169.323 29.1515L169.338 29.1283L168.915 28.8619ZM168.944 28.8163L169.363 29.0901L169.363 29.0899L168.944 28.8163ZM168.998 28.7352L169.414 29.0133L169.414 29.0133L168.998 28.7352ZM169.088 27.7313L169.352 27.3065L169.321 27.2877L169.289 27.2735L169.088 27.7313ZM167.81 27.7256L167.91 28.2156L167.91 28.2156L167.81 27.7256ZM167.782 27.7313L167.682 27.2413L167.668 27.2442L167.655 27.2478L167.782 27.7313ZM167.175 27.964L167.425 28.3968L167.425 28.3966L167.175 27.964ZM166.622 28.2839L166.87 28.7179L166.872 28.7167L166.622 28.2839ZM166.596 28.2987L166.844 28.7328L166.844 28.7327L166.596 28.2987ZM165.523 28.9418L165.795 29.3613L165.798 29.3595L165.523 28.9418ZM156.822 37.9168L157.242 38.1876L157.249 38.1766L156.822 37.9168ZM155.482 39.9966L155.572 40.4885L155.785 40.4498L155.903 40.2673L155.482 39.9966ZM155.289 39.8507L155.769 39.7107L155.768 39.7088L155.289 39.8507ZM155.251 39.5308L154.755 39.464L154.751 39.4972V39.5308H155.251ZM157.144 35.021L156.718 34.7589L156.711 34.7699L157.144 35.021ZM157.144 35.0207L157.57 35.2828L157.576 35.2718L157.144 35.0207ZM157.901 33.6783L157.461 33.4405L157.46 33.4437L157.901 33.6783ZM159.566 31.1311L159.162 30.837L159.159 30.8408L159.566 31.1311ZM159.567 31.1309L159.971 31.4251L159.977 31.4165L159.567 31.1309ZM159.567 31.1307L159.16 30.8405L159.156 30.8451L159.567 31.1307ZM159.691 30.9557L159.298 30.6476L159.291 30.6564L159.284 30.6655L159.691 30.9557ZM160.056 30.4764L159.655 30.1766L159.655 30.1767L160.056 30.4764ZM161.908 28.5856L162.16 29.0174L162.168 29.0131L162.175 29.0085L161.908 28.5856ZM162.039 28.4184L162.534 28.4898L162.534 28.4897L162.039 28.4184ZM161.966 28.2293L162.354 27.9139L162.315 27.8661L162.265 27.8291L161.966 28.2293ZM157.467 30.2686L157.083 29.9488L157.063 29.9723L157.047 29.9981L157.467 30.2686ZM154.836 35.1324L155.235 35.4335L155.266 35.3927L155.288 35.3465L154.836 35.1324ZM153.195 37.3061L153.584 37.6208L153.589 37.6141L153.595 37.6073L153.195 37.3061ZM146.972 42.5334L147.087 43.0201L147.11 43.0146L147.133 43.0069L146.972 42.5334ZM144.898 42.2316L144.475 42.4988L144.489 42.5203L144.504 42.5403L144.898 42.2316ZM145.708 37.0216L146.166 37.2232V37.2232L145.708 37.0216ZM146.104 36.0956L145.652 35.8822L145.645 35.8966L145.639 35.9114L146.104 36.0956ZM150.71 28.651L150.358 28.2954L150.346 28.3078L150.334 28.321L150.71 28.651ZM150.99 27.9022L151.44 27.6834L151.428 27.6594L151.414 27.6368L150.99 27.9022ZM150.733 27.7386L150.866 27.2566L150.851 27.2525L150.836 27.2493L150.733 27.7386ZM149.611 27.8259L149.456 27.3504L149.452 27.3519L149.611 27.8259ZM147.856 29.1054L147.485 28.7699L147.483 28.7724L147.856 29.1054ZM145.021 32.947L144.606 32.6684L145.021 32.947ZM143.795 34.7361L144.187 35.0463L144.195 35.0367L144.202 35.0268L143.795 34.7361ZM143.048 35.6869L143.442 35.9951V35.9951L143.048 35.6869ZM136.923 42.2244L137.204 42.6379L137.212 42.632L137.221 42.6257L136.923 42.2244ZM133.869 42.8896L133.624 43.3256L133.654 43.3426L133.686 43.3552L133.869 42.8896ZM133.765 38.0804L133.302 37.8906L133.3 37.8973L133.297 37.9042L133.765 38.0804ZM135.832 34.3872L135.421 34.1016L135.419 34.1043L135.832 34.3872ZM140.053 29.5707L140.371 29.9573L140.382 29.9478L140.393 29.9376L140.053 29.5707ZM145.758 29.4035L145.353 29.6965L145.355 29.6987L145.758 29.4035ZM146.039 29.847L145.601 30.0891L145.608 30.1021L145.616 30.1147L146.039 29.847ZM146.115 29.9964L145.661 30.2054V30.2054L146.115 29.9964ZM146.35 30.3086L146.594 29.8723L146.582 29.866L146.35 30.3086ZM146.661 30.2432L146.327 29.8712L146.327 29.8713L146.661 30.2432ZM146.772 29.5764L147.266 29.498L147.266 29.4979L146.772 29.5764ZM146.753 29.4471L146.255 29.4953L146.257 29.507L146.753 29.4471ZM143.73 26.7281L143.786 26.2313L143.784 26.231L143.73 26.7281ZM134.437 31.7299L134.048 31.4162L134.042 31.4236L134.036 31.4312L134.437 31.7299ZM132.247 35.3723L132.647 35.6726L132.68 35.6283L132.703 35.5779L132.247 35.3723ZM130.661 37.4842L131.049 37.7995L131.055 37.7921L131.061 37.7846L130.661 37.4842ZM124.607 42.5297L124.737 43.0123L124.752 43.0085L124.766 43.0038L124.607 42.5297ZM122.206 41.2393L122.705 41.2107L122.704 41.2029L122.704 41.1951L122.206 41.2393ZM122.82 38.315L122.351 38.142L122.351 38.1424L122.82 38.315ZM122.823 38.3083L123.292 38.4812L123.292 38.4808L122.823 38.3083ZM122.831 38.2875L123.3 38.46L123.3 38.4599L122.831 38.2875ZM122.897 38.1058L122.431 37.9259L122.427 37.9344L122.897 38.1058ZM125.786 32.2279L125.357 31.9715L125.355 31.9747L125.786 32.2279ZM128.352 28.6583L128.016 28.2882L127.995 28.307L127.977 28.328L128.352 28.6583ZM128.556 27.8186L128.875 27.4341L128.805 27.3758L128.719 27.346L128.556 27.8186ZM122.267 34.0912L121.821 33.8653V33.8653L122.267 34.0912ZM122.056 34.5071L122.498 34.7404L122.5 34.7358L122.056 34.5071ZM120.782 37.6426L120.31 37.4778L120.303 37.4992L120.297 37.5213L120.782 37.6426ZM120.782 37.6426L121.254 37.8074L121.262 37.786L121.267 37.7639L120.782 37.6426ZM119.367 41.0357L119.801 41.2837L119.802 41.2813L119.367 41.0357ZM110.251 46.2339L110.291 46.7322L110.296 46.7318L110.251 46.2339ZM95.9717 43.144L96.1616 42.6815L96.1611 42.6813L95.9717 43.144ZM93.5663 42.1473L93.3658 42.6055L93.374 42.6089L93.5663 42.1473ZM93.5661 42.1473L93.7665 41.6891L93.7584 41.6857L93.5661 42.1473ZM82.3287 37.9021L82.0067 37.5195L81.2869 38.1253L82.1918 38.383L82.3287 37.9021ZM88.1371 30.7232L88.5544 30.9987L88.5545 30.9985L88.1371 30.7232ZM88.1375 30.7226L87.7269 30.437L87.7202 30.4472L88.1375 30.7226ZM88.1377 30.7223L88.5483 31.008L88.5549 30.9979L88.1377 30.7223ZM89.4142 28.8146L89.8265 29.0978L89.8336 29.0868L89.4142 28.8146ZM91.5501 25.469L91.9723 25.737V25.737L91.5501 25.469ZM98.9643 14.2707L99.361 14.575L99.3616 14.5742L98.9643 14.2707ZM110.043 5.16845L109.969 4.67399L109.967 4.67423L110.043 5.16845ZM112.26 5.15391L112.387 4.67028L112.375 4.66734L112.26 5.15391ZM112.809 5.52832L112.357 5.74089L112.37 5.76947L112.387 5.79614L112.809 5.52832ZM112.83 5.56188L112.407 5.82749L112.407 5.82767L112.83 5.56188ZM112.854 5.5992L112.43 5.86399L112.43 5.86404L112.854 5.5992ZM113.382 6.17536L113.141 6.6135L113.201 6.64679L113.269 6.66242L113.382 6.17536ZM113.274 4.21969L112.922 4.57494L112.952 4.60422L112.986 4.62822L113.274 4.21969ZM110.059 3.19097L110.045 3.69083L110.052 3.69093L110.059 3.19097ZM103.628 5.24115L103.908 5.65536L103.915 5.65032L103.628 5.24115ZM96.813 12.5149L97.2233 12.8007L97.2233 12.8007L96.813 12.5149ZM91.673 20.9737L92.1096 21.2174L92.1104 21.216L91.673 20.9737ZM91.1946 21.832L91.6312 22.0756L91.6313 22.0754L91.1946 21.832ZM91.1913 21.8378L90.7547 21.5942L90.7545 21.5945L91.1913 21.8378ZM85.0002 32.337L84.5858 32.0573L84.5851 32.0582L85.0002 32.337ZM80.7131 37.3716L80.5604 37.8477L80.8244 37.9323L81.036 37.7533L80.7131 37.3716ZM76.1186 36.6264L76.1634 36.1284L76.1587 36.128L76.1186 36.6264ZM67.4213 39.1237L67.7856 39.4661L67.7972 39.4538L67.8079 39.4407L67.4213 39.1237ZM68.1926 42.9816L68.523 43.3568L69.0499 42.8927L68.4391 42.5466L68.1926 42.9816ZM65.8155 44.2418L65.6873 43.7585L65.683 43.7597L65.8155 44.2418ZM58.5781 41.3738L59.0312 41.1623L59.0281 41.1558L59.0249 41.1494L58.5781 41.3738ZM58.4817 31.0292L58.9703 31.1355L58.9703 31.1355L58.4817 31.0292ZM58.5233 30.8378L58.7827 30.4104L58.1836 30.0468L58.0347 30.7316L58.5233 30.8378ZM58.9392 31.0902L59.206 30.6672L59.1985 30.6627L58.9392 31.0902ZM59.0943 31.2601L59.5033 30.9725L59.5033 30.9725L59.0943 31.2601ZM59.4155 31.4682L59.4497 31.967L59.4603 31.9663L59.4708 31.9651L59.4155 31.4682ZM59.719 31.3228L59.4183 30.9233L59.4149 30.9259L59.719 31.3228ZM60.0033 30.7775L60.502 30.7412L60.5019 30.7399L60.0033 30.7775ZM60.0008 30.7374L60.5 30.7098V30.7097L60.0008 30.7374ZM59.9095 30.4639L59.4814 30.7223L59.5036 30.7589L59.5316 30.7912L59.9095 30.4639ZM58.7848 29.6029L58.304 29.4656L58.1906 29.8627L58.5592 30.0491L58.7848 29.6029ZM68.8312 7.53488L68.4011 7.27976L68.3975 7.28592L68.8312 7.53488ZM72.4 1.94414L72.0212 1.61767L72.0069 1.6343L71.9941 1.65213L72.4 1.94414ZM69.7109 1.47521L69.9338 1.92278L69.9676 1.90592L69.9986 1.88416L69.7109 1.47521ZM68.5308 2.74551L68.1083 2.47804L68.1045 2.48405L68.1009 2.49017L68.5308 2.74551ZM68.5307 2.74566L68.9389 3.03436L68.9504 3.01811L68.9606 3.001L68.5307 2.74566ZM68.5306 2.74579L68.1223 2.4571L68.115 2.46753L68.1081 2.47832L68.5306 2.74579ZM68.3471 3.03103L67.9305 2.75441L67.9249 2.76316L68.3471 3.03103ZM65.4375 8.21011L64.9964 7.97469V7.97469L65.4375 8.21011ZM64.3865 10.163L63.9481 9.9226L63.9441 9.92979L63.9404 9.9371L64.3865 10.163ZM57.5716 24.9178L58.0349 25.1059L58.0385 25.0967L57.5716 24.9178ZM56.2661 28.6816L56.1315 29.1631L56.6062 29.2959L56.7457 28.8231L56.2661 28.6816ZM50.918 27.5605L50.9957 27.0666L50.9956 27.0665L50.918 27.5605ZM45.563 26.8953L45.2066 26.5446L44.4721 27.2909L45.5143 27.393L45.563 26.8953ZM58.3322 12.6313L57.9576 12.2998L57.9491 12.3099L58.3322 12.6313ZM64.3686 5.20149L64.7603 5.51223L64.7604 5.51207L64.3686 5.20149ZM64.3689 5.20113L63.9771 4.8904L63.977 4.89056L64.3689 5.20113ZM65.5966 3.65626L65.2585 3.28789L65.23 3.31403L65.2059 3.34425L65.5966 3.65626ZM64.7822 3.06374L64.4006 2.74058L64.3893 2.754L64.3789 2.76818L64.7822 3.06374ZM62.7298 5.68666L62.2298 5.68866L62.2354 7.08105L63.1169 6.00319L62.7298 5.68666ZM62.1776 4.56139L62.5342 4.21091L62.5194 4.19588L62.5034 4.18214L62.1776 4.56139ZM39.3434 3.82711L39.2584 3.33439L39.2567 3.33468L39.3434 3.82711ZM39.1306 3.86457L39.2172 4.35701L39.2173 4.357L39.1306 3.86457ZM31.9869 6.68791L31.6276 6.3402L31.6183 6.34971L31.6097 6.3597L31.9869 6.68791ZM33.8077 12.6785L34.0535 12.2431L34.0468 12.2393L34.0401 12.2358L33.8077 12.6785ZM34.0267 12.8021L34.3417 12.4138L34.3091 12.3873L34.2725 12.3667L34.0267 12.8021ZM34.3264 12.8457L34.1423 12.3808L34.1236 12.3882L34.1056 12.3971L34.3264 12.8457ZM34.4032 11.9515L34.1648 12.391L34.1875 12.4033L34.2115 12.4133L34.4032 11.9515ZM34.4262 7.20409L34.6564 7.64809L34.6649 7.64346L34.4262 7.20409ZM42.0402 4.91036L41.962 4.4165L41.9591 4.41698L42.0402 4.91036ZM53.196 3.98705L53.2255 3.48785L53.2169 3.48749L53.196 3.98705ZM53.8335 4.01983L53.8094 4.51925L53.8335 4.01983ZM61.5514 6.74243L61.0568 6.81574L62.0514 6.74243H61.5514ZM61.5514 6.73516L62.0406 6.63177L61.0514 6.73516H61.5514ZM42.3109 27.9285L42.6518 28.2943L43.5047 27.4992L42.3408 27.4294L42.3109 27.9285ZM17.2891 30.8466L17.1024 30.3827L17.0948 30.3859L17.2891 30.8466ZM35.4404 34.3326L35.7677 34.7106L35.7746 34.7046L35.7813 34.6984L35.4404 34.3326ZM8.96829 47.3135L8.92297 47.8114L8.92622 47.8117L8.96829 47.3135ZM5.94115 40.1415L6.37605 40.3884L6.38038 40.3804L5.94115 40.1415ZM79.3609 38.5991L79.6882 38.9771L80.4261 38.338L79.4763 38.1126L79.3609 38.5991ZM71.3743 38.7965L71.1688 38.3405L71.1579 38.3457L71.3743 38.7965ZM69.3728 40.505L69.7226 40.8623L69.7526 40.8328L69.7774 40.7988L69.3728 40.505ZM69.077 41.3774L69.5762 41.4077L69.5767 41.3956L69.077 41.3774ZM69.3204 42.2198L68.9517 42.5575L69.104 42.7238L69.3296 42.7197L69.3204 42.2198ZM69.7531 42.308L69.976 41.8604L69.9669 41.8559L69.9576 41.8517L69.7531 42.308ZM70.0747 42.6057L69.6108 42.7921L69.7116 43.0431L69.9768 43.096L70.0747 42.6057ZM72.035 42.4897L72.1317 42.9803L72.146 42.9775L72.1601 42.9738L72.035 42.4897ZM75.7805 41.0212L76.0284 41.4554L76.0349 41.4516L75.7805 41.0212ZM77.5092 39.9997H78.0092V39.1235L77.2549 39.5692L77.5092 39.9997ZM77.5092 40.0033H77.0092V40.9322L77.7845 40.4207L77.5092 40.0033ZM130.388 22.6168H130.888V22.0823L130.355 22.1179L130.388 22.6168ZM129.063 20.9992L128.6 20.8106L128.584 20.8482L128.575 20.8877L129.063 20.9992ZM130.388 22.6204H129.888V23.1174L130.385 23.1204L130.388 22.6204ZM131.971 21.8062L131.513 21.6055L131.508 21.6167L131.504 21.6281L131.971 21.8062ZM132.186 21.377L132.629 21.609L132.632 21.6034L132.186 21.377ZM132.186 21.3766L131.743 21.1447L131.74 21.1502L132.186 21.3766ZM132.605 19.1126L132.899 18.7084L132.874 18.6901L132.847 18.6751L132.605 19.1126ZM131.967 19.058L131.852 18.5715L131.838 18.5749L131.823 18.5791L131.967 19.058ZM130.845 19.4906L130.615 19.0468L130.598 19.0554L130.582 19.0653L130.845 19.4906ZM130.488 19.702L130.712 20.1492L130.726 20.1423L130.739 20.1345L130.488 19.702ZM130.488 19.7021L130.265 19.2548L130.251 19.2618L130.237 19.2696L130.488 19.7021ZM62.0964 7.22701L62.1038 7.20016L61.1396 6.93511L61.1322 6.96197L62.0964 7.22701ZM53.2069 17.4916C56.2281 14.2047 59.1789 10.8576 62.0011 7.41128L61.2275 6.7777C58.4204 10.2055 55.4828 13.5379 52.4707 16.8149L53.2069 17.4916ZM43.7849 27.114C47.0269 23.999 50.1687 20.7892 53.2065 17.4921L52.4711 16.8145C49.4469 20.0968 46.3193 23.2921 43.0921 26.393L43.7849 27.114ZM30.5201 27.292C34.7186 26.9627 39.4184 26.8948 43.3938 27.2515L43.4832 26.2555C39.4375 25.8925 34.6794 25.9627 30.4419 26.295L30.5201 27.292ZM6.77123 35.518C13.1722 29.989 21.9648 27.969 30.5204 27.2919L30.4415 26.2951C21.8178 26.9775 12.7625 29.0215 6.11755 34.7612L6.77123 35.518ZM1.67484 42.9211C2.38046 40.0359 4.4193 37.55 6.77128 35.518L6.11751 34.7613C3.69828 36.8514 1.48069 39.5055 0.703468 42.6836L1.67484 42.9211ZM6.37145 48.7361C4.5663 48.5265 3.20459 47.9053 2.39411 46.9576C1.59829 46.0271 1.2656 44.7013 1.67644 42.9144L0.701868 42.6903C0.236835 44.7129 0.587946 46.3843 1.63414 47.6076C2.66569 48.8137 4.30422 49.5028 6.25612 49.7295L6.37145 48.7361ZM18.7825 46.612C14.9133 48.3081 10.5906 49.3064 6.38076 48.7373L6.2468 49.7283C10.6958 50.3297 15.2086 49.2705 19.184 47.5279L18.7825 46.612ZM43.9746 27.7465C36.8008 34.9849 28.4959 42.3369 18.7818 46.6123L19.1846 47.5276C29.0778 43.1733 37.4914 35.7087 44.6849 28.4505L43.9746 27.7465ZM56.0773 29.416C52.2576 28.3664 48.2793 27.9407 44.3731 27.6004L44.2864 28.5966C48.189 28.9366 52.0879 29.3568 55.8123 30.3803L56.0773 29.416ZM56.2702 30.8641C56.3261 30.5736 56.3823 30.2815 56.4364 29.9893L55.4532 29.807C55.3997 30.0954 55.3442 30.3842 55.2882 30.6753L56.2702 30.8641ZM55.7078 36.2421C55.5817 34.4593 55.9183 32.694 56.2702 30.8641L55.2882 30.6753C54.9406 32.4829 54.5735 34.3773 54.7103 36.3127L55.7078 36.2421ZM57.6664 42.1017C56.4163 40.4099 55.8234 38.3334 55.7083 36.2498L54.7098 36.305C54.8329 38.5326 55.4692 40.8109 56.8621 42.696L57.6664 42.1017ZM63.2546 44.907C61.0621 44.5772 58.9219 43.741 57.6612 42.0948L56.8673 42.7029C58.3571 44.6482 60.8037 45.5496 63.1059 45.8959L63.2546 44.907ZM69.1564 43.0786C67.6594 44.522 65.3848 45.1964 63.2476 44.906L63.1129 45.8969C65.5241 46.2245 68.1129 45.4739 69.8505 43.7984L69.1564 43.0786ZM75.3362 41.858C74.4798 42.2903 73.4587 42.6754 72.44 42.8952C71.4153 43.1163 70.4312 43.162 69.6286 42.9544L69.3782 43.9226C70.3889 44.1839 71.5445 44.1115 72.6509 43.8727C73.7633 43.6327 74.8647 43.2162 75.7869 42.7507L75.3362 41.858ZM79.7325 39.2154C78.331 40.1523 76.6433 41.2783 75.3591 41.8472L75.764 42.7615C77.1452 42.1498 78.9137 40.9656 80.2882 40.0468L79.7325 39.2154ZM79.7352 39.2137L79.7338 39.2145L80.2869 40.0477L80.2882 40.0468L79.7352 39.2137ZM79.7341 39.2144L79.7332 39.215L80.2902 40.0455L80.2912 40.0448L79.7341 39.2144ZM80.5692 38.6591C80.3102 38.8293 80.0291 39.0172 79.7348 39.2139L80.2905 40.0453C80.5856 39.848 80.8633 39.6624 81.1184 39.4948L80.5692 38.6591ZM91.0285 42.4966C87.7317 41.0554 84.3314 39.5682 80.9831 38.5968L80.7044 39.5571C83.9791 40.5072 87.3186 41.9662 90.628 43.4129L91.0285 42.4966ZM91.014 42.4905L91.0139 42.4905L90.6425 43.419L90.6427 43.419L91.014 42.4905ZM91.0142 42.4906L91.014 42.4905L90.6427 43.419L90.6428 43.4191L91.0142 42.4906ZM96.0104 44.6096C94.3825 43.9627 92.719 43.2356 91.0287 42.4967L90.6282 43.413C92.3155 44.1505 93.9947 44.8847 95.6411 45.5389L96.0104 44.6096ZM96.8933 44.981C96.5877 44.8514 96.2925 44.7263 96.0169 44.6122L95.6346 45.5363C95.9055 45.6484 96.1965 45.7717 96.503 45.9017L96.8933 44.981ZM100.993 46.4926C99.786 46.2057 98.244 45.5536 96.8933 44.981L96.503 45.9017C97.8274 46.4632 99.4553 47.1549 100.762 47.4655L100.993 46.4926ZM119.076 42.7686C114.48 48.3676 107.858 48.5884 101.023 46.5009L100.731 47.4572C107.726 49.5936 114.872 49.4654 119.849 43.4031L119.076 42.7686ZM119.79 41.836L119.066 42.7819L119.86 43.3899L120.584 42.4441L119.79 41.836ZM126.048 42.4542C125.105 43.0414 123.834 43.5473 122.756 43.5743C122.225 43.5877 121.777 43.4837 121.436 43.2553C121.105 43.0333 120.822 42.6594 120.674 42.026L119.7 42.2541C119.897 43.0934 120.306 43.7016 120.88 44.086C121.444 44.4641 122.115 44.5908 122.782 44.574C124.101 44.5409 125.548 43.9434 126.576 43.3032L126.048 42.4542ZM130.282 38.4795C128.979 39.9962 127.725 41.4486 126.055 42.4499L126.569 43.3075C128.401 42.2096 129.754 40.6281 131.041 39.1312L130.282 38.4795ZM130.264 38.5021L130.264 38.5024L131.059 39.1084L131.059 39.1082L130.264 38.5021ZM130.987 37.6654C130.75 37.9355 130.515 38.2084 130.282 38.4793L131.041 39.131C131.274 38.8595 131.505 38.5906 131.738 38.3252L130.987 37.6654ZM131.698 40.1406C131.652 39.4621 131.713 38.774 131.852 38.0958L130.873 37.8948C130.719 38.6457 130.647 39.425 130.7 40.2077L131.698 40.1406ZM136.159 43.2629C134.794 43.7241 133.718 43.5342 132.98 42.9888C132.235 42.4374 131.744 41.4556 131.698 40.1565L130.699 40.1919C130.753 41.7172 131.338 43.0183 132.386 43.7928C133.441 44.5733 134.875 44.7523 136.48 44.2103L136.159 43.2629ZM142.543 37.3351C140.772 39.7834 138.969 42.2494 136.15 43.2662L136.489 44.2069C139.647 43.068 141.618 40.3195 143.354 37.9214L142.543 37.3351ZM142.708 37.1074L142.544 37.3351L143.354 37.9214L143.518 37.6938L142.708 37.1074ZM143.034 39.1474C143.179 38.7011 143.393 38.09 143.583 37.5726L142.644 37.2285C142.452 37.7531 142.233 38.3764 142.083 38.8382L143.034 39.1474ZM150.333 40.9367C149.432 41.8015 148.409 42.5004 147.412 42.9599C146.408 43.4225 145.465 43.6262 144.713 43.5503C143.984 43.4769 143.443 43.1476 143.131 42.5105C142.802 41.8389 142.692 40.7497 143.047 39.0979L142.069 38.8877C141.693 40.6383 141.762 41.9887 142.233 42.95C142.72 43.9459 143.597 44.4429 144.612 44.5453C145.604 44.6453 146.731 44.3744 147.83 43.8681C148.936 43.3588 150.05 42.5945 151.025 41.6582L150.333 40.9367ZM153.428 37.6243C152.537 38.8075 151.493 39.9235 150.35 40.9208L151.008 41.6741C152.2 40.6332 153.293 39.4667 154.227 38.2257L153.428 37.6243ZM154.253 43.2424C153.799 42.6634 153.664 41.8363 153.734 40.8721C153.803 39.9162 154.066 38.9152 154.309 38.0619L153.347 37.7881C153.103 38.6433 152.814 39.7317 152.737 40.7999C152.66 41.8598 152.785 42.9915 153.467 43.8599L154.253 43.2424ZM154.398 43.3618C154.396 43.3628 154.395 43.3627 154.396 43.3625C154.397 43.3624 154.397 43.3623 154.398 43.3623C154.398 43.3623 154.398 43.3623 154.398 43.3623C154.398 43.3623 154.398 43.3623 154.398 43.3623C154.398 43.3623 154.398 43.3623 154.398 43.3623C154.398 43.3623 154.398 43.3622 154.397 43.3622C154.396 43.3621 154.395 43.3618 154.394 43.3614C154.39 43.3606 154.385 43.3589 154.377 43.3558C154.363 43.3492 154.343 43.3376 154.322 43.3196C154.3 43.3015 154.281 43.2806 154.266 43.26L153.454 43.8424C153.667 44.14 154.187 44.5446 154.797 44.2785L154.398 43.3618ZM154.433 43.2085C154.416 43.2536 154.402 43.2877 154.389 43.3193C154.375 43.3502 154.365 43.37 154.357 43.3829C154.341 43.4089 154.35 43.3831 154.393 43.3639L154.802 44.2764C155.008 44.184 155.134 44.0295 155.212 43.9016C155.286 43.7802 155.335 43.6478 155.366 43.5698L154.433 43.2085ZM154.521 43.0001C154.485 43.075 154.454 43.154 154.433 43.2085L155.366 43.5697C155.39 43.506 155.405 43.4693 155.419 43.4406L154.521 43.0001ZM155.973 40.1149C155.412 41.017 154.803 41.9909 154.49 43.0824L155.451 43.3584C155.719 42.4236 156.247 41.5674 156.822 40.6426L155.973 40.1149ZM156.501 39.2461C156.333 39.5346 156.155 39.8212 155.973 40.1149L156.822 40.6426C157.003 40.351 157.189 40.0526 157.365 39.7501L156.501 39.2461ZM158.674 36.0229C157.839 37.0457 157.155 38.145 156.503 39.2429L157.363 39.7532C158.01 38.6628 158.663 37.6174 159.449 36.6555L158.674 36.0229ZM164.118 30.7318C162.119 32.298 160.251 34.0524 158.671 36.0268L159.452 36.6516C160.973 34.7506 162.781 33.0493 164.735 31.5191L164.118 30.7318ZM163.506 35.8475C163.705 34.3219 164.201 32.7789 164.879 31.3385L163.974 30.9125C163.261 32.4279 162.729 34.0712 162.515 35.7185L163.506 35.8475ZM169.129 45.1809C166.87 44.4987 165.218 43.2353 164.253 41.6341C163.289 40.0348 162.986 38.058 163.497 35.8981L162.524 35.6679C161.959 38.0555 162.284 40.3045 163.397 42.1503C164.508 43.9943 166.381 45.3954 168.84 46.1382L169.129 45.1809ZM190.892 46.8254C183.594 47.2891 176.128 47.112 169.117 45.1775L168.851 46.1415C176.016 48.1184 183.608 48.2902 190.955 47.8234L190.892 46.8254ZM215.624 43.9556C207.373 45.0939 199.142 46.2293 190.887 46.8257L190.959 47.8231C199.252 47.224 207.515 46.0838 215.761 44.9462L215.624 43.9556ZM261.283 41.0208C245.924 39.7736 230.741 41.8702 215.624 43.9556L215.761 44.9462C230.896 42.8583 245.97 40.7807 261.202 42.0175L261.283 41.0208ZM277.815 42.7167C272.32 42.073 266.814 41.4278 261.28 41.0205L261.206 42.0178C266.716 42.4233 272.2 43.0658 277.698 43.7099L277.815 42.7167ZM277.809 42.716L277.808 42.716L277.705 43.7106L277.705 43.7107L277.809 42.716ZM291.887 44.216C287.189 43.8148 282.506 43.2663 277.815 42.7167L277.699 43.7099C282.388 44.2592 287.085 44.8097 291.802 45.2124L291.887 44.216ZM296.432 44.6009C294.917 44.4953 293.405 44.3653 291.893 44.2166L291.795 45.2118C293.315 45.3613 294.837 45.4922 296.362 45.5985L296.432 44.6009ZM295.901 45.0175L295.898 45.0653L296.896 45.1341L296.899 45.0864L295.901 45.0175ZM296.439 44.5534L296.431 44.5529L296.369 45.551L296.378 45.5515L296.439 44.5534ZM295.913 44.9485L295.909 45.0285L296.908 45.0765L296.912 44.9965L295.913 44.9485ZM296.371 45.4709L296.378 45.4713L296.446 44.4737L296.44 44.4732L296.371 45.4709ZM295.91 44.8982L295.907 44.9378L296.904 45.0063L296.907 44.9668L295.91 44.8982ZM291.679 45.0771C293.243 45.2132 294.809 45.3331 296.377 45.4315L296.44 44.4335C294.88 44.3357 293.323 44.2163 291.766 44.0809L291.679 45.0771ZM277.4 43.3092C282.143 43.9582 286.899 44.6088 291.674 45.0766L291.771 44.0814C287.018 43.6158 282.282 42.9678 277.535 42.3184L277.4 43.3092ZM250.735 40.8669C259.682 40.8859 268.521 42.0944 277.4 43.3092L277.535 42.3184C268.667 41.1051 259.762 39.8861 250.737 39.8669L250.735 40.8669ZM216.187 43.6146C227.69 42.2205 239.156 40.8316 250.735 40.8668L250.738 39.8669C239.087 39.8314 227.56 41.229 216.066 42.6219L216.187 43.6146ZM186.771 46.2938C196.637 45.9841 206.426 44.7976 216.187 43.6146L216.066 42.6219C206.298 43.8057 196.554 44.9863 186.74 45.2943L186.771 46.2938ZM169.587 44.2787C175.136 45.8821 181.017 46.3342 186.759 46.294L186.752 45.294C181.061 45.3338 175.286 44.8844 169.864 43.318L169.587 44.2787ZM168.524 28.5506C166.786 30.7355 165.085 34.0072 164.776 37.0567C164.621 38.5889 164.814 40.1019 165.572 41.3899C166.335 42.6869 167.636 43.6974 169.583 44.2775L169.868 43.3192C168.119 42.7979 167.047 41.925 166.434 40.8828C165.815 39.8317 165.63 38.5497 165.771 37.1575C166.055 34.3582 167.644 31.263 169.306 29.1731L168.524 28.5506ZM168.526 28.5424C168.515 28.5597 168.503 28.5775 168.492 28.5954L169.338 29.1283C169.345 29.1166 169.354 29.1039 169.363 29.0901L168.526 28.5424ZM168.583 28.457C168.564 28.4846 168.545 28.5139 168.526 28.5427L169.363 29.0899C169.378 29.0665 169.395 29.0416 169.414 29.0133L168.583 28.457ZM168.824 28.1562C168.848 28.1708 168.82 28.1598 168.804 28.112C168.79 28.0716 168.802 28.0534 168.794 28.0819C168.786 28.1122 168.766 28.1611 168.725 28.2326C168.686 28.3031 168.638 28.3747 168.583 28.4571L169.414 29.0133C169.507 28.8734 169.688 28.6128 169.761 28.3362C169.801 28.1856 169.82 27.9924 169.751 27.7898C169.679 27.5798 169.534 27.4195 169.352 27.3065L168.824 28.1562ZM167.91 28.2156C168.363 28.1236 168.643 28.0821 168.887 28.1892L169.289 27.2735C168.706 27.0179 168.101 27.1562 167.711 27.2356L167.91 28.2156ZM167.881 28.2213L167.91 28.2156L167.711 27.2356L167.682 27.2413L167.881 28.2213ZM167.425 28.3966C167.556 28.321 167.717 28.2654 167.909 28.2149L167.655 27.2478C167.432 27.3063 167.17 27.3889 166.924 27.5313L167.425 28.3966ZM166.872 28.7167L167.425 28.3968L166.924 27.5311L166.371 27.851L166.872 28.7167ZM166.844 28.7327L166.87 28.7179L166.373 27.8498L166.348 27.8646L166.844 28.7327ZM165.798 29.3595C166.128 29.1424 166.481 28.9402 166.844 28.7328L166.348 27.8646C165.99 28.0693 165.609 28.2869 165.248 28.5242L165.798 29.3595ZM157.249 38.1766C159.366 34.695 162.291 31.6349 165.795 29.3613L165.251 28.5224C161.617 30.8798 158.588 34.0502 156.395 37.657L157.249 38.1766ZM155.903 40.2673L157.242 38.1875L156.401 37.6461L155.062 39.7259L155.903 40.2673ZM154.809 39.9906C154.844 40.111 154.916 40.2516 155.05 40.3584C155.195 40.4743 155.382 40.5229 155.572 40.4885L155.393 39.5046C155.488 39.4874 155.593 39.5127 155.673 39.5762C155.741 39.6305 155.763 39.6896 155.769 39.7107L154.809 39.9906ZM154.751 39.5308C154.751 39.6387 154.763 39.8352 154.81 39.9926L155.768 39.7088C155.769 39.7091 155.767 39.7025 155.764 39.6873C155.761 39.673 155.759 39.6555 155.757 39.6356C155.752 39.5946 155.751 39.5553 155.751 39.5308H154.751ZM156.711 34.7699C155.889 36.1852 154.99 37.7202 154.755 39.464L155.746 39.5976C155.95 38.0844 156.734 36.7212 157.576 35.2721L156.711 34.7699ZM156.718 34.7588L156.718 34.759L157.569 35.2831L157.57 35.2829L156.718 34.7588ZM156.718 34.7587L156.718 34.7588L157.57 35.2829L157.57 35.2828L156.718 34.7587ZM157.46 33.4437C157.226 33.883 156.972 34.3207 156.711 34.7696L157.576 35.2718C157.835 34.8258 158.099 34.3718 158.343 33.913L157.46 33.4437ZM159.159 30.8408C158.581 31.6522 157.952 32.5335 157.461 33.4405L158.341 33.9161C158.797 33.0732 159.388 32.2426 159.974 31.4213L159.159 30.8408ZM159.162 30.8368L159.162 30.837L159.971 31.4251L159.971 31.425L159.162 30.8368ZM159.156 30.8451L159.156 30.8454L159.977 31.4165L159.977 31.4162L159.156 30.8451ZM159.284 30.6655L159.16 30.8405L159.974 31.4208L160.099 31.2458L159.284 30.6655ZM159.655 30.1767C159.534 30.3394 159.416 30.4961 159.298 30.6476L160.085 31.2637C160.211 31.1026 160.335 30.9374 160.456 30.7761L159.655 30.1767ZM161.656 28.1538C160.778 28.6661 160.175 29.4834 159.655 30.1766L160.456 30.7761C160.998 30.0521 161.487 29.4104 162.16 29.0174L161.656 28.1538ZM161.544 28.347C161.555 28.2708 161.59 28.2167 161.615 28.1879C161.637 28.1636 161.652 28.1556 161.641 28.1627L162.175 29.0085C162.251 28.9602 162.488 28.8038 162.534 28.4898L161.544 28.347ZM161.578 28.5448C161.595 28.5659 161.582 28.5533 161.569 28.5261C161.552 28.4907 161.532 28.4263 161.544 28.3471L162.534 28.4897C162.579 28.1718 162.385 27.9527 162.354 27.9139L161.578 28.5448ZM157.852 30.5884C158.293 30.058 159.005 29.3161 159.763 28.8448C160.543 28.3602 161.181 28.2666 161.666 28.6296L162.265 27.8291C161.26 27.0761 160.104 27.4551 159.235 27.9956C158.344 28.5494 157.552 29.3851 157.083 29.9488L157.852 30.5884ZM155.288 35.3465C156.052 33.733 156.906 32.0649 157.888 30.5392L157.047 29.9981C156.031 31.5767 155.156 33.2893 154.384 34.9182L155.288 35.3465ZM153.595 37.6073L155.235 35.4335L154.437 34.8312L152.796 37.0049L153.595 37.6073ZM147.133 43.0069C149.949 42.0519 151.923 39.6718 153.584 37.6208L152.807 36.9915C151.118 39.0772 149.312 41.2119 146.812 42.0598L147.133 43.0069ZM144.504 42.5403C144.864 42.9988 145.377 43.1456 145.832 43.1694C146.282 43.1929 146.74 43.1017 147.087 43.0201L146.858 42.0466C146.525 42.1249 146.184 42.1864 145.885 42.1708C145.592 42.1555 145.408 42.0716 145.291 41.923L144.504 42.5403ZM145.251 36.82C144.891 37.6353 144.45 38.6338 144.216 39.609C143.985 40.5736 143.928 41.6329 144.475 42.4988L145.32 41.9645C144.993 41.4462 144.977 40.7244 145.189 39.842C145.398 38.9701 145.799 38.0556 146.166 37.2232L145.251 36.82ZM145.639 35.9114C145.532 36.1804 145.399 36.4835 145.251 36.82L146.166 37.2232C146.312 36.8914 146.454 36.5699 146.569 36.2799L145.639 35.9114ZM150.334 28.321C148.336 30.5948 146.899 33.2403 145.652 35.8822L146.556 36.3091C147.79 33.6947 149.18 31.1493 151.086 28.981L150.334 28.321ZM150.541 28.121C150.531 28.0999 150.529 28.0777 150.53 28.0655C150.53 28.058 150.531 28.0667 150.518 28.0935C150.488 28.1524 150.43 28.225 150.358 28.2954L151.061 29.0066C151.163 28.9061 151.312 28.7425 151.413 28.5388C151.516 28.3325 151.601 28.0146 151.44 27.6834L150.541 28.121ZM150.6 28.2206C150.614 28.2245 150.623 28.2274 150.628 28.2293C150.633 28.2312 150.632 28.2313 150.628 28.2287C150.623 28.226 150.613 28.2199 150.601 28.2093C150.589 28.1984 150.577 28.1844 150.567 28.1676L151.414 27.6368C151.246 27.3684 150.977 27.2873 150.866 27.2566L150.6 28.2206ZM149.766 28.3013C150.067 28.2034 150.359 28.1709 150.63 28.2279L150.836 27.2493C150.346 27.1464 149.87 27.2156 149.456 27.3504L149.766 28.3013ZM148.226 29.4409C148.69 28.928 149.18 28.498 149.77 28.2998L149.452 27.3519C148.613 27.6336 147.981 28.2213 147.485 28.7699L148.226 29.4409ZM145.436 33.2257C146.332 31.8915 147.224 30.564 148.229 29.4384L147.483 28.7724C146.424 29.9586 145.493 31.3458 144.606 32.6684L145.436 33.2257ZM144.202 35.0268C144.618 34.4444 145.027 33.8345 145.436 33.2257L144.606 32.6684C144.196 33.2794 143.794 33.8771 143.388 34.4455L144.202 35.0268ZM143.442 35.9951C143.692 35.676 143.94 35.3595 144.187 35.0463L143.403 34.4259C143.153 34.7414 142.904 35.0599 142.654 35.3786L143.442 35.9951ZM137.221 42.6257C139.691 40.7908 141.62 38.3221 143.442 35.9951L142.654 35.3786C140.817 37.7251 138.968 40.082 136.624 41.823L137.221 42.6257ZM133.686 43.3552C134.954 43.8511 136.332 43.2304 137.204 42.6379L136.642 41.8108C135.823 42.3671 134.827 42.7278 134.051 42.424L133.686 43.3552ZM133.297 37.9042C133.06 38.5346 132.681 39.5756 132.568 40.5816C132.458 41.5567 132.576 42.7378 133.624 43.3256L134.113 42.4535C133.632 42.1835 133.46 41.5925 133.562 40.6937C133.659 39.8258 133.994 38.8911 134.233 38.2566L133.297 37.9042ZM135.419 34.1043C134.606 35.2905 133.855 36.5443 133.302 37.8906L134.227 38.2702C134.743 37.0138 135.452 35.8248 136.244 34.67L135.419 34.1043ZM139.736 29.1841C138.008 30.6019 136.644 32.344 135.421 34.1016L136.242 34.6727C137.447 32.9406 138.749 31.2876 140.371 29.9573L139.736 29.1841ZM146.163 29.1105C145.318 27.9407 144.098 27.5658 142.903 27.6907C141.73 27.8133 140.568 28.4129 139.714 29.2037L140.393 29.9376C141.117 29.2672 142.084 28.7817 143.007 28.6853C143.907 28.5912 144.751 28.8633 145.353 29.6964L146.163 29.1105ZM146.476 29.6048C146.384 29.4382 146.281 29.2706 146.162 29.1083L145.355 29.6987C145.443 29.8199 145.524 29.9504 145.601 30.0891L146.476 29.6048ZM146.569 29.7874C146.548 29.7414 146.51 29.6572 146.461 29.5792L145.616 30.1147C145.623 30.1255 145.633 30.145 145.661 30.2054L146.569 29.7874ZM146.582 29.866C146.619 29.8854 146.632 29.9077 146.624 29.8968C146.62 29.8911 146.614 29.8803 146.604 29.8611C146.594 29.8411 146.584 29.8191 146.569 29.7874L145.661 30.2054C145.7 30.2904 145.82 30.5951 146.117 30.7512L146.582 29.866ZM146.327 29.8713C146.339 29.8606 146.355 29.8492 146.384 29.8411C146.417 29.8322 146.501 29.8203 146.594 29.8725L146.105 30.7447C146.302 30.8551 146.503 30.845 146.646 30.8061C146.787 30.7681 146.906 30.6948 146.995 30.615L146.327 29.8713ZM146.278 29.6548C146.288 29.7148 146.295 29.761 146.3 29.805C146.304 29.8481 146.304 29.8767 146.303 29.8955C146.302 29.9136 146.299 29.9141 146.303 29.9047C146.308 29.8928 146.317 29.8799 146.327 29.8712L146.995 30.6152C147.214 30.4185 147.285 30.1716 147.3 29.9694C147.314 29.7846 147.282 29.6015 147.266 29.498L146.278 29.6548ZM146.257 29.507C146.263 29.5592 146.272 29.6122 146.278 29.6548L147.266 29.4979C147.258 29.4512 147.253 29.4174 147.25 29.3872L146.257 29.507ZM143.673 27.2248C145.011 27.3774 146.143 28.3283 146.255 29.4953L147.251 29.3989C147.079 27.6288 145.445 26.4205 143.786 26.2313L143.673 27.2248ZM134.826 32.0436C135.833 30.7948 137.21 29.4873 138.764 28.5441C140.32 27.5993 142.015 27.0431 143.675 27.2251L143.784 26.231C141.83 26.0168 139.913 26.6766 138.245 27.6892C136.574 28.7035 135.112 30.095 134.048 31.4162L134.826 32.0436ZM132.703 35.5779C133.246 34.3749 134.009 33.141 134.838 32.0287L134.036 31.4312C133.175 32.5871 132.371 33.8832 131.792 35.1666L132.703 35.5779ZM131.061 37.7846L132.647 35.6726L131.848 35.072L130.261 37.1839L131.061 37.7846ZM124.766 43.0038C127.524 42.0784 129.429 39.7938 131.049 37.7995L130.273 37.169C128.627 39.1951 126.89 41.2362 124.448 42.0557L124.766 43.0038ZM121.706 41.2678C121.755 42.1144 122.122 42.7179 122.769 42.9988C123.358 43.2548 124.073 43.1921 124.737 43.0123L124.476 42.0471C123.891 42.2054 123.446 42.2027 123.167 42.0816C122.946 41.9853 122.737 41.7745 122.705 41.2107L121.706 41.2678ZM122.351 38.1424C122.012 39.0663 121.607 40.1441 121.708 41.2834L122.704 41.1951C122.626 40.3171 122.935 39.4532 123.29 38.4875L122.351 38.1424ZM122.354 38.1353L122.351 38.142L123.29 38.4879L123.292 38.4812L122.354 38.1353ZM122.361 38.115L122.354 38.1357L123.292 38.4808L123.3 38.46L122.361 38.115ZM122.427 37.9344C122.406 37.9943 122.383 38.0544 122.361 38.1152L123.3 38.4599C123.322 38.3993 123.345 38.3383 123.367 38.2773L122.427 37.9344ZM125.355 31.9747C124.235 33.8818 123.226 35.8623 122.431 37.9259L123.364 38.2858C124.135 36.2853 125.117 34.3545 126.217 32.4811L125.355 31.9747ZM127.977 28.328C126.976 29.4645 126.118 30.6975 125.357 31.9715L126.215 32.4843C126.952 31.2501 127.776 30.0694 128.727 28.9886L127.977 28.328ZM128.236 28.2031C128.226 28.1944 128.21 28.178 128.197 28.1531C128.183 28.1283 128.177 28.1041 128.174 28.0852C128.17 28.052 128.18 28.0466 128.167 28.0785C128.156 28.1077 128.134 28.1472 128.102 28.1906C128.07 28.2335 128.038 28.268 128.016 28.2882L128.688 29.0284C128.825 28.904 129 28.6924 129.098 28.4448C129.148 28.3181 129.19 28.1502 129.167 27.9647C129.143 27.7644 129.047 27.5764 128.875 27.4341L128.236 28.2031ZM122.713 34.317C123.279 33.1997 124.168 31.4473 125.233 30.0873C125.767 29.4065 126.319 28.8566 126.869 28.5303C127.408 28.2102 127.908 28.1237 128.392 28.2912L128.719 27.346C127.879 27.056 127.071 27.2472 126.358 27.6705C125.656 28.0875 125.013 28.7465 124.446 29.4707C123.31 30.9206 122.38 32.762 121.821 33.8653L122.713 34.317ZM122.5 34.7358C122.565 34.6103 122.636 34.4692 122.713 34.317L121.821 33.8653C121.744 34.0183 121.674 34.1563 121.611 34.2784L122.5 34.7358ZM121.254 37.8073C121.628 36.7365 121.989 35.7061 122.498 34.7404L121.614 34.2738C121.063 35.3168 120.68 36.4186 120.31 37.4778L121.254 37.8073ZM121.267 37.7639L121.267 37.7638L120.297 37.5213L120.297 37.5214L121.267 37.7639ZM119.802 41.2813C120.434 40.1601 120.852 38.9596 121.254 37.8074L120.31 37.4779C119.903 38.6439 119.512 39.7593 118.931 40.7902L119.802 41.2813ZM110.296 46.7318C114.014 46.3953 117.923 44.5712 119.801 41.2837L118.933 40.7877C117.268 43.7017 113.717 45.4181 110.206 45.7359L110.296 46.7318ZM95.7818 43.6066C100.267 45.4485 105.215 47.1461 110.291 46.7322L110.21 45.7355C105.39 46.1286 100.635 44.5183 96.1616 42.6815L95.7818 43.6066ZM93.374 42.6089C94.2207 42.9617 95.0313 43.2995 95.7823 43.6068L96.1611 42.6813C95.4136 42.3754 94.6061 42.0389 93.7586 41.6858L93.374 42.6089ZM93.3657 42.6053L93.3659 42.6054L93.7667 41.6893L93.7665 41.6892L93.3657 42.6053ZM82.1918 38.383C85.4712 39.3166 89.7492 41.0984 93.3738 42.6088L93.7584 41.6857C90.1527 40.1832 85.814 38.3745 82.4656 37.4212L82.1918 38.383ZM87.7199 30.4476C86.0179 33.0248 84.3452 35.5514 82.0067 37.5195L82.6507 38.2846C85.118 36.2081 86.8655 33.556 88.5544 30.9987L87.7199 30.4476ZM87.7202 30.4472L87.7198 30.4478L88.5545 30.9985L88.5548 30.998L87.7202 30.4472ZM87.7272 30.4368L87.727 30.4371L88.548 31.0081L88.5481 31.0079L87.7272 30.4368ZM89.002 28.5315C88.5674 29.1643 88.1429 29.8071 87.7205 30.4468L88.5549 30.9979C88.9782 30.3569 89.3977 29.7217 89.8263 29.0977L89.002 28.5315ZM91.128 25.2011C90.2932 26.5163 89.5528 27.6827 88.9948 28.5424L89.8336 29.0868C90.395 28.2219 91.1386 27.0504 91.9723 25.737L91.128 25.2011ZM98.5676 13.9663C96.7774 16.2996 93.5502 21.3849 91.128 25.2011L91.9723 25.737C94.4087 21.8985 97.6053 16.8634 99.361 14.575L98.5676 13.9663ZM109.967 4.67423C107.498 5.05304 105.292 6.55269 103.4 8.33912C101.504 10.1296 99.872 12.2589 98.5669 13.9671L99.3616 14.5742C100.673 12.8582 102.258 10.7927 104.086 9.06618C105.919 7.33568 107.944 5.99633 110.119 5.66267L109.967 4.67423ZM112.375 4.66734C111.552 4.47266 110.701 4.56409 109.969 4.67399L110.118 5.6629C110.838 5.55471 111.523 5.49346 112.145 5.64048L112.375 4.66734ZM113.262 5.31575C113.072 4.91185 112.661 4.74259 112.387 4.67044L112.132 5.63738C112.216 5.65939 112.279 5.68663 112.32 5.71267C112.36 5.73822 112.361 5.75099 112.357 5.74089L113.262 5.31575ZM113.254 5.29627C113.247 5.28462 113.239 5.27264 113.231 5.2605L112.387 5.79614C112.393 5.8063 112.4 5.8167 112.407 5.82749L113.254 5.29627ZM113.278 5.33442C113.27 5.32213 113.262 5.30912 113.254 5.29609L112.407 5.82767C112.414 5.83947 112.422 5.85134 112.43 5.86399L113.278 5.33442ZM113.623 5.73723C113.496 5.66768 113.419 5.56056 113.278 5.33436L112.43 5.86404C112.557 6.06788 112.755 6.4015 113.141 6.6135L113.623 5.73723ZM112.986 4.62822C112.983 4.62636 112.99 4.63121 113.007 4.64796C113.022 4.66397 113.042 4.68652 113.066 4.71638C113.113 4.77646 113.167 4.85578 113.22 4.94931C113.33 5.1391 113.423 5.35773 113.471 5.54681C113.528 5.76957 113.489 5.82262 113.509 5.787C113.534 5.74464 113.577 5.7141 113.611 5.70463C113.628 5.69972 113.6 5.71271 113.495 5.68831L113.269 6.66242C113.469 6.7089 113.68 6.72393 113.882 6.66708C114.1 6.60567 114.272 6.4692 114.378 6.28178C114.564 5.95604 114.507 5.56242 114.441 5.30082C114.366 5.00552 114.232 4.70207 114.087 4.45087C113.953 4.21718 113.769 3.95686 113.562 3.81117L112.986 4.62822ZM110.052 3.69093C111.167 3.70518 112.247 3.90638 112.922 4.57494L113.626 3.86445C112.657 2.90449 111.225 2.70584 110.065 2.69101L110.052 3.69093ZM103.915 5.65032C105.691 4.40325 107.846 3.62888 110.045 3.69077L110.073 2.69117C107.623 2.6222 105.26 3.48361 103.341 4.83198L103.915 5.65032ZM97.2233 12.8007C99.1014 10.1041 101.171 7.5065 103.908 5.6553L103.348 4.827C100.453 6.78536 98.297 9.50946 96.4027 12.2292L97.2233 12.8007ZM92.1104 21.216C93.7026 18.3407 95.3445 15.4981 97.2233 12.8007L96.4027 12.2292C94.4937 14.9699 92.8319 17.8489 91.2356 20.7315L92.1104 21.216ZM91.6313 22.0754C91.7956 21.7805 91.9553 21.4939 92.1096 21.2174L91.2364 20.7301C91.0819 21.007 90.9221 21.2938 90.7578 21.5887L91.6313 22.0754ZM91.6279 22.0815L91.6312 22.0756L90.7579 21.5884L90.7547 21.5942L91.6279 22.0815ZM85.4147 32.6167C87.3849 29.6976 89.798 25.3658 91.6281 22.0812L90.7545 21.5945C88.917 24.8924 86.5268 29.1814 84.5858 32.0573L85.4147 32.6167ZM81.036 37.7533C82.7936 36.2662 84.18 34.4553 85.4153 32.6157L84.5851 32.0582C83.3696 33.8683 82.0438 35.5907 80.3901 36.9898L81.036 37.7533ZM76.0737 37.1243C77.5316 37.2557 79.4413 37.4889 80.5604 37.8477L80.8657 36.8954C79.6261 36.4981 77.6098 36.2587 76.1634 36.1284L76.0737 37.1243ZM67.8079 39.4407C69.6691 37.1712 73.0103 36.878 76.0785 37.1248L76.1587 36.128C73.0804 35.8804 69.2456 36.1106 67.0347 38.8066L67.8079 39.4407ZM68.4391 42.5466C67.2422 41.8683 66.9049 40.403 67.7856 39.4661L67.057 38.7812C65.6287 40.3006 66.3248 42.4978 67.946 43.4166L68.4391 42.5466ZM65.9437 44.7251C66.9052 44.4701 67.7882 44.0041 68.523 43.3568L67.8621 42.6064C67.2471 43.1481 66.5036 43.542 65.6873 43.7586L65.9437 44.7251ZM58.125 41.5852C58.78 42.9889 60.0322 43.9691 61.4514 44.499C62.8701 45.0286 64.4931 45.124 65.9481 44.7239L65.683 43.7597C64.4412 44.1012 63.0332 44.0221 61.8012 43.5621C60.5698 43.1024 59.5517 42.2778 59.0312 41.1623L58.125 41.5852ZM57.9931 30.923C57.2636 34.2778 56.4015 38.1527 58.1312 41.5981L59.0249 41.1494C57.4811 38.0743 58.2237 34.5689 58.9703 31.1355L57.9931 30.923ZM58.0347 30.7316L57.9931 30.923L58.9703 31.1355L59.0119 30.944L58.0347 30.7316ZM59.1985 30.6627L58.7827 30.4104L58.2639 31.2653L58.6798 31.5176L59.1985 30.6627ZM59.5033 30.9725C59.4704 30.9257 59.3698 30.7706 59.2059 30.6673L58.6724 31.513C58.648 31.4977 58.6384 31.4848 58.6436 31.4909C58.646 31.4936 58.6503 31.499 58.6576 31.5089C58.6653 31.5193 58.6733 31.5307 58.6853 31.5477L59.5033 30.9725ZM59.3813 30.9694C59.3983 30.9682 59.4268 30.9695 59.4605 30.9805C59.494 30.9914 59.5185 31.0071 59.5331 31.0188C59.5459 31.029 59.5492 31.0346 59.5422 31.0259C59.534 31.0158 59.5244 31.0026 59.5033 30.9725L58.6853 31.5477C58.715 31.59 58.7936 31.7081 58.9095 31.8006C59.0501 31.9127 59.2329 31.9819 59.4497 31.967L59.3813 30.9694ZM59.4149 30.9259C59.3947 30.9414 59.3816 30.9512 59.3695 30.9597C59.3582 30.9676 59.3514 30.9716 59.3477 30.9736C59.3425 30.9765 59.3486 30.9726 59.3602 30.9713L59.4708 31.9651C59.7543 31.9336 59.9458 31.7789 60.0231 31.7197L59.4149 30.9259ZM59.5046 30.8139C59.5039 30.8039 59.5076 30.8125 59.4924 30.8401C59.477 30.868 59.4506 30.899 59.4183 30.9233L60.0197 31.7223C60.2742 31.5307 60.5336 31.176 60.5019 30.7412L59.5046 30.8139ZM59.5015 30.7651C59.5023 30.7778 59.5033 30.7961 59.5047 30.8151L60.5019 30.7399C60.5013 30.7324 60.5008 30.7239 60.5 30.7098L59.5015 30.7651ZM59.5316 30.7912C59.5269 30.7858 59.5201 30.7766 59.5134 30.7638C59.5068 30.751 59.5027 30.7392 59.5004 30.7304C59.4982 30.7223 59.4982 30.719 59.4988 30.7245C59.4991 30.7272 59.4995 30.7315 59.5 30.7385C59.5005 30.7457 59.5009 30.7535 59.5015 30.7651L60.5 30.7097C60.4948 30.6157 60.4886 30.3688 60.2874 30.1365L59.5316 30.7912ZM58.5592 30.0491C59.0097 30.2769 59.3181 30.4517 59.4814 30.7223L60.3375 30.2054C60.0012 29.6483 59.4119 29.3597 59.0104 29.1567L58.5592 30.0491ZM68.3975 7.28592C64.3533 14.3297 60.5363 21.6484 58.304 29.4656L59.2656 29.7401C61.463 22.045 65.2289 14.813 69.2648 7.78384L68.3975 7.28592ZM71.9941 1.65213C70.6855 3.47092 69.5272 5.38138 68.4011 7.27979L69.2612 7.78997C70.3862 5.89337 71.5252 4.01608 72.8058 2.23615L71.9941 1.65213ZM69.9986 1.88416C70.0164 1.87161 70.083 1.83527 70.2167 1.78686C70.3412 1.74174 70.4977 1.69546 70.6733 1.65337C71.0272 1.56854 71.4283 1.50795 71.7634 1.50072C71.9316 1.49709 72.0666 1.50736 72.1634 1.52716C72.2713 1.54924 72.2759 1.57172 72.248 1.54407C72.1874 1.48406 72.1807 1.39907 72.1871 1.37077C72.1872 1.37037 72.1821 1.39158 72.1554 1.43707C72.129 1.48184 72.0867 1.54178 72.0212 1.61767L72.7787 2.27061C72.9592 2.06114 73.1068 1.83476 73.1619 1.59397C73.2254 1.3169 73.1592 1.03925 72.9519 0.833834C72.7773 0.660778 72.5479 0.585114 72.3637 0.547443C72.1684 0.507491 71.953 0.496402 71.7419 0.500954C71.3183 0.510086 70.8445 0.583992 70.4402 0.680917C70.2366 0.729704 70.0432 0.786117 69.8761 0.846638C69.7181 0.903874 69.5513 0.976129 69.4232 1.06627L69.9986 1.88416ZM68.9532 3.01298C69.2767 2.50204 69.5298 2.12394 69.9338 1.92278L69.488 1.02765C68.7941 1.3732 68.4054 2.00878 68.1083 2.47804L68.9532 3.01298ZM68.9606 3.001L68.9606 3.00085L68.1009 2.49017L68.1008 2.49032L68.9606 3.001ZM68.9388 3.03449L68.9389 3.03436L68.1224 2.45697L68.1223 2.4571L68.9388 3.03449ZM68.7637 3.30758C68.829 3.20914 68.8925 3.10881 68.953 3.01327L68.1081 2.47832C68.0466 2.5755 67.9889 2.66659 67.9306 2.75447L68.7637 3.30758ZM65.8786 8.44553C66.8275 6.66762 67.8652 4.72396 68.7693 3.29889L67.9249 2.76316C66.9963 4.22683 65.9394 6.20785 64.9964 7.97469L65.8786 8.44553ZM64.8249 10.4035C65.152 9.80703 65.5084 9.1392 65.8786 8.44552L64.9964 7.97469C64.6255 8.66965 64.2719 9.33214 63.9481 9.9226L64.8249 10.4035ZM58.0385 25.0967C59.9604 20.082 62.3848 15.2213 64.8325 10.389L63.9404 9.9371C61.494 14.7668 59.0474 19.6699 57.1047 24.7389L58.0385 25.0967ZM56.7457 28.8231C57.114 27.575 57.5475 26.3063 58.0348 25.1059L57.1083 24.7297C56.6068 25.9649 56.1628 27.2652 55.7866 28.5401L56.7457 28.8231ZM50.8403 28.0544C52.6295 28.336 54.4014 28.6794 56.1315 29.1631L56.4008 28.2001C54.6198 27.7021 52.8065 27.3515 50.9957 27.0666L50.8403 28.0544ZM45.5143 27.393C47.2979 27.5676 49.0739 27.777 50.8404 28.0544L50.9956 27.0665C49.2043 26.7852 47.4079 26.5736 45.6117 26.3977L45.5143 27.393ZM57.9491 12.3099C53.9155 17.1179 49.6127 22.0679 45.2066 26.5446L45.9193 27.2461C50.3531 22.7413 54.6757 17.7677 58.7152 12.9526L57.9491 12.3099ZM63.9769 4.89076C62.0718 7.29234 59.3235 10.7566 57.9578 12.2999L58.7066 12.9626C60.0951 11.3937 62.8653 7.90112 64.7603 5.51223L63.9769 4.89076ZM63.977 4.89056L63.9767 4.89092L64.7604 5.51207L64.7607 5.51171L63.977 4.89056ZM65.2059 3.34425C64.8729 3.76122 64.4514 4.29251 63.9771 4.8904L64.7606 5.51187C65.2352 4.91351 65.6555 4.38368 65.9873 3.96827L65.2059 3.34425ZM65.1637 3.3869C65.1695 3.38002 65.1711 3.38054 65.168 3.38195C65.1658 3.38295 65.1669 3.38178 65.1736 3.38157C65.1809 3.38134 65.1931 3.38242 65.2086 3.38729C65.2241 3.39219 65.2387 3.39958 65.2503 3.40773C65.2622 3.41607 65.2661 3.42177 65.2651 3.42041C65.264 3.41883 65.2551 3.40557 65.2508 3.37989C65.246 3.35165 65.2491 3.32159 65.2585 3.29706C65.2672 3.27428 65.2749 3.27279 65.2585 3.28789L65.9347 4.02463C66.1667 3.81161 66.2891 3.52183 66.2367 3.21277C66.1889 2.93096 66.0103 2.71967 65.8256 2.58979C65.4735 2.34215 64.8304 2.23322 64.4006 2.74058L65.1637 3.3869ZM63.1169 6.00319C63.7247 5.25997 64.6968 4.02613 65.1855 3.3593L64.3789 2.76818C63.9048 3.41501 62.945 4.63368 62.3428 5.37013L63.1169 6.00319ZM61.821 4.91187C62.0761 5.17143 62.2289 5.46367 62.2298 5.68866L63.2298 5.68465C63.2274 5.07888 62.8659 4.54845 62.5342 4.21091L61.821 4.91187ZM39.4285 4.31982C41.6555 3.93536 46.4933 3.39511 51.1913 3.3133C53.5402 3.2724 55.8381 3.34647 57.7496 3.60737C58.7053 3.73781 59.5533 3.9135 60.2576 4.14003C60.9668 4.36818 61.5 4.63843 61.8518 4.94064L62.5034 4.18214C62.01 3.75825 61.3366 3.43666 60.5638 3.18807C59.7859 2.93785 58.8763 2.75188 57.8849 2.61656C55.9021 2.34594 53.5477 2.27211 51.1739 2.31345C46.4264 2.39613 41.5375 2.94094 39.2584 3.33439L39.4285 4.31982ZM39.2173 4.357L39.4301 4.31953L39.2567 3.33468L39.0439 3.37214L39.2173 4.357ZM32.3462 7.03562C34.0403 5.28499 36.6378 4.8107 39.2172 4.35701L39.044 3.37213C36.5429 3.81205 33.5881 4.31431 31.6276 6.3402L32.3462 7.03562ZM34.0401 12.2358C32.9105 11.6431 32.0621 10.8003 31.7128 9.89573C31.3781 9.02864 31.4741 8.03895 32.3641 7.01612L31.6097 6.3597C30.4943 7.6415 30.3022 9.01824 30.7799 10.2559C31.2432 11.456 32.3079 12.4562 33.5754 13.1213L34.0401 12.2358ZM34.2725 12.3667L34.0535 12.2431L33.562 13.1139L33.7809 13.2375L34.2725 12.3667ZM34.1056 12.3971C34.1564 12.3721 34.1986 12.3668 34.2196 12.3657C34.2413 12.3645 34.2549 12.3669 34.2598 12.3679C34.2651 12.369 34.2707 12.3706 34.2784 12.3738C34.2822 12.3755 34.3075 12.3861 34.3417 12.4138L33.7118 13.1904C33.8202 13.2784 33.9542 13.3264 34.0616 13.3481C34.1687 13.3697 34.3579 13.3875 34.5471 13.2944L34.1056 12.3971ZM34.2115 12.4133C34.2035 12.41 34.1919 12.4033 34.1801 12.3922C34.1686 12.3813 34.1607 12.3698 34.156 12.3602C34.1472 12.3427 34.151 12.3377 34.1498 12.3498C34.1486 12.3614 34.1439 12.3735 34.1386 12.3811C34.1345 12.3871 34.1348 12.3838 34.1423 12.3808L34.5104 13.3106C34.9029 13.1552 35.1097 12.788 35.1445 12.4529C35.18 12.1103 35.0401 11.6746 34.5949 11.4897L34.2115 12.4133ZM34.1962 6.76017C33.472 7.13547 32.8873 7.54532 32.4747 7.99206C32.0598 8.44121 31.7981 8.95208 31.7828 9.51236C31.7522 10.6346 32.6945 11.5934 34.1648 12.391L34.6416 11.512C33.2038 10.732 32.7689 10.0368 32.7825 9.53963C32.7893 9.29019 32.905 8.99998 33.2093 8.67054C33.5158 8.3387 33.9917 7.99246 34.6563 7.64801L34.1962 6.76017ZM41.9591 4.41698C39.316 4.85146 36.6001 5.45432 34.1876 6.76472L34.6649 7.64346C36.9237 6.41658 39.5014 5.83441 42.1213 5.40374L41.9591 4.41698ZM53.2169 3.48749C49.4218 3.32894 45.661 3.83073 41.962 4.41651L42.1184 5.4042C45.8106 4.8195 49.487 4.33254 53.1752 4.48661L53.2169 3.48749ZM53.8576 3.52041C53.6207 3.50898 53.4092 3.49876 53.2255 3.48792L53.1666 4.48618C53.3567 4.49741 53.5741 4.50789 53.8094 4.51925L53.8576 3.52041ZM62.046 6.66913C61.9308 5.89198 61.4429 5.32363 60.8206 4.91681C60.205 4.51431 59.4201 4.24257 58.6073 4.05173C56.9803 3.66971 55.0921 3.58 53.8576 3.52041L53.8094 4.51925C55.0606 4.57964 56.8559 4.66771 58.3787 5.02525C59.1409 5.20419 59.7975 5.44267 60.2734 5.75382C60.7428 6.06065 60.9966 6.40938 61.0568 6.81574L62.046 6.66913ZM61.0514 6.73516V6.74243H62.0514V6.73516H61.0514ZM62.1109 6.96424L62.0406 6.63177L61.0622 6.83856L61.1325 7.17103L62.1109 6.96424ZM42.3408 27.4294C33.9196 26.9242 25.0535 27.184 17.1025 30.3827L17.4757 31.3105C25.2168 28.1962 33.9019 27.9249 42.2809 28.4276L42.3408 27.4294ZM35.7813 34.6984L42.6518 28.2943L41.97 27.5628L35.0995 33.9669L35.7813 34.6984ZM8.92622 47.8117C13.9578 48.2365 18.9767 46.4135 23.5612 43.7798C28.1498 41.1438 32.3552 37.665 35.7677 34.7106L35.1131 33.9546C31.7069 36.9036 27.5626 40.3278 23.0631 42.9127C18.5594 45.4999 13.7517 47.2156 9.01036 46.8153L8.92622 47.8117ZM5.50632 39.8946C4.56616 41.5509 4.15209 43.3924 4.63879 44.9207C5.14335 46.505 6.56129 47.5965 8.92297 47.8114L9.01361 46.8155C6.94215 46.627 5.94375 45.7228 5.59164 44.6172C5.22168 43.4555 5.51061 41.9128 6.37598 40.3883L5.50632 39.8946ZM17.0948 30.3859C12.4203 32.3567 7.93645 35.4265 5.50192 39.9026L6.38038 40.3804C8.66327 36.1831 12.9151 33.2333 17.4833 31.3073L17.0948 30.3859ZM79.4763 38.1126C76.8561 37.4908 73.8092 37.1507 71.1688 38.3407L71.5797 39.2523C73.9049 38.2045 76.674 38.4753 79.2454 39.0856L79.4763 38.1126ZM71.1579 38.3457C70.2614 38.7759 69.5239 39.446 68.9682 40.2112L69.7774 40.7988C70.2513 40.1463 70.866 39.595 71.5906 39.2473L71.1579 38.3457ZM69.023 40.1477C68.6533 40.5097 68.5896 41.0223 68.5773 41.3592L69.5767 41.3956C69.5874 41.1 69.6467 40.9365 69.7226 40.8623L69.023 40.1477ZM68.5779 41.3471C68.5553 41.7197 68.6173 42.1922 68.9517 42.5575L69.6892 41.8822C69.6133 41.7992 69.5616 41.6466 69.5761 41.4077L68.5779 41.3471ZM69.3296 42.7197C69.4029 42.7184 69.4804 42.7337 69.5486 42.7642L69.9576 41.8517C69.7518 41.7595 69.5281 41.716 69.3113 41.7199L69.3296 42.7197ZM69.5302 42.7555C69.5767 42.7787 69.6035 42.797 69.6174 42.8089C69.6299 42.8196 69.6199 42.8149 69.6108 42.7921L70.5387 42.4193C70.4112 42.1021 70.1356 41.9399 69.976 41.8604L69.5302 42.7555ZM69.9768 43.096C70.7232 43.2451 71.5061 43.1036 72.1317 42.9803L71.9383 41.9992C71.2954 42.1259 70.6985 42.2204 70.1727 42.1154L69.9768 43.096ZM72.1601 42.9738C73.4853 42.6315 74.8277 42.1409 76.0284 41.4554L75.5326 40.5869C74.4284 41.2174 73.1739 41.6791 71.91 42.0056L72.1601 42.9738ZM76.0349 41.4516L77.7636 40.4302L77.2549 39.5692L75.5262 40.5907L76.0349 41.4516ZM77.0092 39.9997V40.0033H78.0092V39.9997H77.0092ZM77.7845 40.4207C78.4526 39.98 79.0871 39.4977 79.6882 38.9771L79.0335 38.2212C78.4647 38.7138 77.8648 39.1698 77.2339 39.586L77.7845 40.4207ZM130.355 22.1179C130.116 22.1338 129.892 22.0193 129.73 21.8085C129.563 21.5914 129.502 21.3223 129.55 21.1106L128.575 20.8877C128.451 21.4321 128.616 22.0009 128.937 22.4181C129.263 22.8417 129.788 23.1579 130.421 23.1157L130.355 22.1179ZM130.888 22.6204V22.6168H129.888V22.6204H130.888ZM131.504 21.6281C131.467 21.7253 131.352 21.8527 131.117 21.9616C130.891 22.0668 130.619 22.1218 130.391 22.1204L130.385 23.1204C130.756 23.1227 131.174 23.0377 131.539 22.8685C131.895 22.7029 132.271 22.4214 132.438 21.9842L131.504 21.6281ZM131.743 21.1451C131.658 21.3079 131.571 21.4736 131.513 21.6055L132.429 22.0068C132.469 21.9143 132.537 21.7845 132.629 21.6089L131.743 21.1451ZM131.74 21.1502L131.74 21.1506L132.632 21.6034L132.632 21.6031L131.74 21.1502ZM132.31 19.5167C132.315 19.5202 132.315 19.521 132.316 19.5231C132.319 19.5274 132.326 19.5442 132.329 19.5817C132.337 19.6643 132.322 19.7954 132.268 19.9798C132.158 20.3489 131.94 20.7694 131.743 21.1448L132.629 21.6085C132.815 21.2539 133.083 20.7445 133.226 20.2651C133.297 20.0252 133.35 19.7525 133.325 19.4867C133.298 19.2058 133.18 18.9128 132.899 18.7084L132.31 19.5167ZM132.082 19.5446C132.228 19.5102 132.316 19.5242 132.363 19.55L132.847 18.6751C132.486 18.4756 132.106 18.5114 131.852 18.5715L132.082 19.5446ZM131.076 19.9344C131.392 19.7702 131.734 19.6498 132.111 19.537L131.823 18.5791C131.424 18.6989 131.013 18.8403 130.615 19.0468L131.076 19.9344ZM130.739 20.1345C130.859 20.0648 130.986 19.9917 131.108 19.9159L130.582 19.0653C130.474 19.1324 130.36 19.1986 130.238 19.2695L130.739 20.1345ZM130.712 20.1493L130.712 20.1492L130.265 19.2548L130.265 19.2548L130.712 20.1493ZM129.526 21.1878C129.701 20.7584 130.128 20.489 130.739 20.1345L130.237 19.2696C129.697 19.5829 128.926 20.0088 128.6 20.8106L129.526 21.1878Z" fill="#D3AE29"/>
</svg>
