<svg width="770" height="134" viewBox="0 0 770 134" fill="none" xmlns="http://www.w3.org/2000/svg">
<path d="M339.526 58.9663C338.987 59.2308 338.375 59.3958 337.8 59.4552V59.4336L337.265 59.4713C336.34 59.5365 335.521 59.0585 334.963 58.2912C334.41 57.53 334.159 56.5379 334.331 55.6622C334.683 54.7766 335.324 54.101 336.119 53.4986C336.653 53.0944 337.215 52.7504 337.791 52.3976C338.106 52.2046 338.425 52.009 338.747 51.7994C339.627 51.319 340.551 50.974 341.545 50.6617C341.991 50.5524 342.43 50.5488 342.789 50.7456C343.046 50.9577 343.178 51.2988 343.163 51.8255C343.148 52.3746 342.972 53.043 342.703 53.7625C342.436 54.4756 342.093 55.2028 341.768 55.8638C341.692 56.0171 341.617 56.1682 341.544 56.3154C341.309 56.7888 341.094 57.2208 340.958 57.5486L340.954 57.5594L340.95 57.5705C340.745 58.1392 340.229 58.6211 339.526 58.9663Z" stroke="#D3AE29" stroke-miterlimit="10"/>
<mask id="path-2-inside-1_160_5254" fill="white">
<path d="M769.48 121.35C765.2 121.07 760.92 120.71 756.65 120.31C721.27 116.6 686.27 108.88 650.57 108.8C594.66 108.62 539.8 121.88 484.02 123.73C469.14 123.84 453.96 122.59 439.69 118.24C420.45 112.18 428.73 88.91 437.58 77.15C438.11 76.26 439.26 74.85 438.03 74.04C436.93 73.53 435.75 73.8 434.63 74.04C434.08 74.19 433.54 74.38 433.05 74.68L431.61 75.56C430.65 76.14 429.67 76.72 428.75 77.37C419.45 83.74 411.71 92.31 406.1 102.06L402.62 107.77C402.37 107.82 402.19 107.66 402.12 107.38C402.04 107.12 402.01 106.73 402.02 106.5C402.77 100.62 406.31 95.59 408.92 90.4C410.24 87.83 411.97 85.3 413.58 82.91C415.29 80.6 416.87 77.92 419.35 76.39C419.5 76.3 419.66 76.16 419.69 75.93C419.71 75.71 419.6 75.54 419.5 75.41C415.62 72.34 410.16 78.02 407.79 81.02C405.19 85.28 402.94 89.94 400.94 94.4L396.67 100.38C392.31 106.08 387.4 112.28 380.47 114.76C378.7 115.19 376.31 115.6 375.07 113.93C372.32 109.35 376.5 101.6 378.21 97.05C381.45 89.83 385.13 82.69 390.2 76.57C390.65 76.1 391.28 75.27 390.93 74.51C390.78 74.25 390.5 74.13 390.26 74.06C389.27 73.84 388.27 73.98 387.34 74.3C385.47 74.97 384.01 76.36 382.77 77.82C378.85 82.47 375.6 88.28 372.2 93.31C366.81 100.51 361.43 108.31 354.31 113.91C352.11 115.49 349.02 116.84 346.36 115.74C342.38 113.38 344.85 105.99 346.09 102.51C347.48 98.93 349.38 95.57 351.47 92.35C354.63 87.55 358.11 82.88 362.46 79.1C366.57 75.08 373.55 73.13 377.31 78.64C377.58 79.03 377.82 79.44 378.04 79.86C378.28 80.26 378.4 80.88 378.85 81.13C379.12 81.29 379.46 81.15 379.66 80.95C380.25 80.39 379.98 79.46 379.9 78.76C379.53 74.72 375.93 71.75 372.03 71.28C362.62 70.19 353.23 77.97 347.84 85.04C345.64 88.15 343.59 91.64 342.14 95.06L338.01 100.87C333.76 106.39 329.02 112.35 322.25 114.75C319.01 115.67 316.21 115.08 316 111.2C315.75 108.22 316.84 105.36 317.8 102.58C319.84 96.99 322.43 91.61 325.32 86.41C327.27 82.96 329.47 79.64 332 76.59C332.51 76.11 333.27 74.93 332.54 74.28C325.17 71.58 318.2 87.38 315.62 92.68C312.75 98.45 311.65 104.96 308.62 110.64C304.01 119.17 294.3 124.04 284.89 124.94C272 126.05 259.37 121.51 247.72 116.44C237.44 111.99 222.85 105.23 212.2 102.02C220.01 95.07 225.01 85.68 230.65 77.02C236.34 67.74 249.3 45.55 255.51 37.01C262.31 27.59 272.25 13.92 284.35 11.97C286.25 11.67 288.25 11.46 290.12 11.93C290.72 12.1 291.31 12.42 291.55 12.96C291.93 13.61 292.3 14.31 293.04 14.74C296.23 15.52 293.94 10.24 292.76 9.35999C290.61 7.11999 287.35 6.56999 284.39 6.52999C278.34 6.35999 272.46 8.59999 267.65 12.17C260.31 17.41 254.81 24.74 249.91 32.18C244.98 39.66 240.68 47.53 236.53 55.45C231.64 64.71 224.71 78.01 219.16 86.71C215.97 91.72 212.43 96.59 208 100.56C204.93 99.52 199.82 98.87 196.04 98.51C188.04 97.83 178.7 98.56 173.4 105.38C170.4 108.75 171.74 113.78 175.4 115.98C173.64 117.62 171.54 118.82 169.22 119.46C162.2 121.5 153.44 118.5 150.38 111.57C146.03 102.43 148.29 92.07 150.24 82.59C150.62 82.83 151.33 83.29 151.33 83.29C151.78 83.59 151.88 84.38 152.57 84.33C152.91 84.29 153.15 84.1 153.36 83.93C153.8 83.58 154.14 83.01 154.1 82.43C154.08 82.16 154.1 81.87 153.86 81.57C153.21 80.43 152.05 79.79 150.94 79.19C156.7 57.85 166.57 37.84 177.09 18.48C180.03 13.26 183.01 8.04999 186.38 3.09999C189.69 -0.970009 180.89 0.679991 179.38 1.80999C177.67 2.69999 176.81 4.52999 175.83 6.08999C172.51 11.62 168.53 19.91 165.52 25.71C159.15 39 152.81 52.43 147.78 66.3C146.5 69.65 145.36 73.18 144.39 76.65C139.82 75.3 135.16 74.34 130.47 73.56C125.84 72.8 121.19 72.22 116.53 71.74C128.04 59.38 139.26 45.73 149.78 32.5C154.26 27.15 164.36 13.54 168.69 7.80999C170.02 6.51999 167.66 4.80999 166.57 6.17999C165.31 7.99999 162.79 11.39 161.21 13.41C161.21 12.26 160.55 11.13 159.79 10.3C150.98 2.30999 112.08 6.13999 100.35 8.27999C93.58 9.53999 86.08 10.81 81.2 16.15C75.98 22.5 79.7 29.18 85.94 32.63L86.51 32.97C86.65 33.09 87.04 33.22 87.29 33.09C88.27 32.69 88.47 31.06 87.49 30.63C79.92 26.29 80.32 21.52 87.55 17.57C93.63 14.09 100.52 12.46 107.37 11.26C116.98 9.65999 126.67 8.28999 136.41 8.71999C142.02 9.07999 157.17 9.16999 158.16 16.3V16.28C158.16 16.28 158.29 16.92 158.33 17.13C158.31 17.22 158.31 17.22 158.28 17.31C150.96 26.75 143.31 35.93 135.48 44.94C127.6 53.99 119.44 62.8 111.01 71.35C100.57 70.35 88.26 70.55 77.28 71.46C54.92 73.33 31.69 78.92 14.71 94.42C8.5 100.09 2.96 107.16 1.03 115.5C-1.25 125.98 4.6 131.99 14.37 133.19C25.64 134.8 37.14 131.97 47.35 127.24C72.86 115.37 94.63 94.99 113.33 75.05C123.49 75.98 133.74 77.16 143.56 80C142.54 85.8 141.25 91.62 141.64 97.55C141.94 103.48 143.55 109.47 146.99 114.39C150.57 119.32 156.54 121.71 162.39 122.65C168.31 123.5 174.63 121.54 178.85 117.25C183.57 118.54 189.99 116.61 194.62 114.13C198.83 112.16 204.55 107.91 208.37 105.25C221.39 109.24 234.77 116.45 247.36 121.74C251.18 123.41 256.49 125.96 260.51 126.98C278.51 132.8 296.43 132.31 308.89 116.27L310.78 113.66C312.58 121.76 321.58 119.07 326.72 115.69C332.1 112.28 335.87 107.09 339.88 102.26C339.49 104.23 339.31 106.25 339.44 108.26C339.7 116.03 345.04 120.81 352.77 118.06C360.8 115 365.78 107.46 370.47 100.61C369.98 102.05 369.41 103.76 369.02 105.01C365.22 123.73 380.39 121.25 390.16 111.35C393.21 108.54 395.98 105.38 398.36 102.03C397.09 106.74 395.46 113.56 398.43 117.56C398.83 118.15 399.59 118.65 400.35 118.3C400.92 118.02 401.06 117.21 401.32 116.65C402.32 112.97 404.58 109.76 406.43 106.41C408.12 103.41 409.86 100.45 411.97 97.72C416 92.39 420.79 87.65 425.93 83.38C424.12 87.44 422.78 91.82 422.24 96.18C419.44 108.69 425.51 119.43 437.79 123.35C456.23 128.74 475.84 129.21 494.9 127.93C555.94 123.26 616.43 106.68 677.95 111.96C705.07 114.07 731.96 118.5 759.06 120.88C762.53 121.23 766 121.55 769.48 121.81C769.48 121.81 769.48 121.73 769.48 121.69V121.47H769.49C769.49 121.42 769.49 121.35 769.49 121.35H769.48ZM108.03 74.59L90.14 92.21C72.39 108.45 46.67 130.19 21.23 127.92C9.69 126.81 8.65 116.94 13.35 108.19C19.48 96.26 30.85 87.98 42.89 82.62C63.31 73.93 86.16 73.2 108.03 74.59ZM180.28 114.97C180.13 114.6 179.8 114.34 179.46 114.16C179.11 113.99 178.73 113.92 178.35 113.93C177.8 113.31 177.64 112.44 177.69 111.6C177.72 110.73 177.88 109.8 178.46 109.2C179.8 107.25 181.56 105.57 183.67 104.5C190.13 101.42 197.69 102.26 204.45 103.95C202.93 105.34 201.33 106.63 199.65 107.81L195.15 110.62C192.15 112.42 188.77 113.74 185.4 114.66C183.74 115.01 181.95 115.33 180.28 114.98V114.97Z"/>
</mask>
<path d="M769.48 121.35C765.2 121.07 760.92 120.71 756.65 120.31C721.27 116.6 686.27 108.88 650.57 108.8C594.66 108.62 539.8 121.88 484.02 123.73C469.14 123.84 453.96 122.59 439.69 118.24C420.45 112.18 428.73 88.91 437.58 77.15C438.11 76.26 439.26 74.85 438.03 74.04C436.93 73.53 435.75 73.8 434.63 74.04C434.08 74.19 433.54 74.38 433.05 74.68L431.61 75.56C430.65 76.14 429.67 76.72 428.75 77.37C419.45 83.74 411.71 92.31 406.1 102.06L402.62 107.77C402.37 107.82 402.19 107.66 402.12 107.38C402.04 107.12 402.01 106.73 402.02 106.5C402.77 100.62 406.31 95.59 408.92 90.4C410.24 87.83 411.97 85.3 413.58 82.91C415.29 80.6 416.87 77.92 419.35 76.39C419.5 76.3 419.66 76.16 419.69 75.93C419.71 75.71 419.6 75.54 419.5 75.41C415.62 72.34 410.16 78.02 407.79 81.02C405.19 85.28 402.94 89.94 400.94 94.4L396.67 100.38C392.31 106.08 387.4 112.28 380.47 114.76C378.7 115.19 376.31 115.6 375.07 113.93C372.32 109.35 376.5 101.6 378.21 97.05C381.45 89.83 385.13 82.69 390.2 76.57C390.65 76.1 391.28 75.27 390.93 74.51C390.78 74.25 390.5 74.13 390.26 74.06C389.27 73.84 388.27 73.98 387.34 74.3C385.47 74.97 384.01 76.36 382.77 77.82C378.85 82.47 375.6 88.28 372.2 93.31C366.81 100.51 361.43 108.31 354.31 113.91C352.11 115.49 349.02 116.84 346.36 115.74C342.38 113.38 344.85 105.99 346.09 102.51C347.48 98.93 349.38 95.57 351.47 92.35C354.63 87.55 358.11 82.88 362.46 79.1C366.57 75.08 373.55 73.13 377.31 78.64C377.58 79.03 377.82 79.44 378.04 79.86C378.28 80.26 378.4 80.88 378.85 81.13C379.12 81.29 379.46 81.15 379.66 80.95C380.25 80.39 379.98 79.46 379.9 78.76C379.53 74.72 375.93 71.75 372.03 71.28C362.62 70.19 353.23 77.97 347.84 85.04C345.64 88.15 343.59 91.64 342.14 95.06L338.01 100.87C333.76 106.39 329.02 112.35 322.25 114.75C319.01 115.67 316.21 115.08 316 111.2C315.75 108.22 316.84 105.36 317.8 102.58C319.84 96.99 322.43 91.61 325.32 86.41C327.27 82.96 329.47 79.64 332 76.59C332.51 76.11 333.27 74.93 332.54 74.28C325.17 71.58 318.2 87.38 315.62 92.68C312.75 98.45 311.65 104.96 308.62 110.64C304.01 119.17 294.3 124.04 284.89 124.94C272 126.05 259.37 121.51 247.72 116.44C237.44 111.99 222.85 105.23 212.2 102.02C220.01 95.07 225.01 85.68 230.65 77.02C236.34 67.74 249.3 45.55 255.51 37.01C262.31 27.59 272.25 13.92 284.35 11.97C286.25 11.67 288.25 11.46 290.12 11.93C290.72 12.1 291.31 12.42 291.55 12.96C291.93 13.61 292.3 14.31 293.04 14.74C296.23 15.52 293.94 10.24 292.76 9.35999C290.61 7.11999 287.35 6.56999 284.39 6.52999C278.34 6.35999 272.46 8.59999 267.65 12.17C260.31 17.41 254.81 24.74 249.91 32.18C244.98 39.66 240.68 47.53 236.53 55.45C231.64 64.71 224.71 78.01 219.16 86.71C215.97 91.72 212.43 96.59 208 100.56C204.93 99.52 199.82 98.87 196.04 98.51C188.04 97.83 178.7 98.56 173.4 105.38C170.4 108.75 171.74 113.78 175.4 115.98C173.64 117.62 171.54 118.82 169.22 119.46C162.2 121.5 153.44 118.5 150.38 111.57C146.03 102.43 148.29 92.07 150.24 82.59C150.62 82.83 151.33 83.29 151.33 83.29C151.78 83.59 151.88 84.38 152.57 84.33C152.91 84.29 153.15 84.1 153.36 83.93C153.8 83.58 154.14 83.01 154.1 82.43C154.08 82.16 154.1 81.87 153.86 81.57C153.21 80.43 152.05 79.79 150.94 79.19C156.7 57.85 166.57 37.84 177.09 18.48C180.03 13.26 183.01 8.04999 186.38 3.09999C189.69 -0.970009 180.89 0.679991 179.38 1.80999C177.67 2.69999 176.81 4.52999 175.83 6.08999C172.51 11.62 168.53 19.91 165.52 25.71C159.15 39 152.81 52.43 147.78 66.3C146.5 69.65 145.36 73.18 144.39 76.65C139.82 75.3 135.16 74.34 130.47 73.56C125.84 72.8 121.19 72.22 116.53 71.74C128.04 59.38 139.26 45.73 149.78 32.5C154.26 27.15 164.36 13.54 168.69 7.80999C170.02 6.51999 167.66 4.80999 166.57 6.17999C165.31 7.99999 162.79 11.39 161.21 13.41C161.21 12.26 160.55 11.13 159.79 10.3C150.98 2.30999 112.08 6.13999 100.35 8.27999C93.58 9.53999 86.08 10.81 81.2 16.15C75.98 22.5 79.7 29.18 85.94 32.63L86.51 32.97C86.65 33.09 87.04 33.22 87.29 33.09C88.27 32.69 88.47 31.06 87.49 30.63C79.92 26.29 80.32 21.52 87.55 17.57C93.63 14.09 100.52 12.46 107.37 11.26C116.98 9.65999 126.67 8.28999 136.41 8.71999C142.02 9.07999 157.17 9.16999 158.16 16.3V16.28C158.16 16.28 158.29 16.92 158.33 17.13C158.31 17.22 158.31 17.22 158.28 17.31C150.96 26.75 143.31 35.93 135.48 44.94C127.6 53.99 119.44 62.8 111.01 71.35C100.57 70.35 88.26 70.55 77.28 71.46C54.92 73.33 31.69 78.92 14.71 94.42C8.5 100.09 2.96 107.16 1.03 115.5C-1.25 125.98 4.6 131.99 14.37 133.19C25.64 134.8 37.14 131.97 47.35 127.24C72.86 115.37 94.63 94.99 113.33 75.05C123.49 75.98 133.74 77.16 143.56 80C142.54 85.8 141.25 91.62 141.64 97.55C141.94 103.48 143.55 109.47 146.99 114.39C150.57 119.32 156.54 121.71 162.39 122.65C168.31 123.5 174.63 121.54 178.85 117.25C183.57 118.54 189.99 116.61 194.62 114.13C198.83 112.16 204.55 107.91 208.37 105.25C221.39 109.24 234.77 116.45 247.36 121.74C251.18 123.41 256.49 125.96 260.51 126.98C278.51 132.8 296.43 132.31 308.89 116.27L310.78 113.66C312.58 121.76 321.58 119.07 326.72 115.69C332.1 112.28 335.87 107.09 339.88 102.26C339.49 104.23 339.31 106.25 339.44 108.26C339.7 116.03 345.04 120.81 352.77 118.06C360.8 115 365.78 107.46 370.47 100.61C369.98 102.05 369.41 103.76 369.02 105.01C365.22 123.73 380.39 121.25 390.16 111.35C393.21 108.54 395.98 105.38 398.36 102.03C397.09 106.74 395.46 113.56 398.43 117.56C398.83 118.15 399.59 118.65 400.35 118.3C400.92 118.02 401.06 117.21 401.32 116.65C402.32 112.97 404.58 109.76 406.43 106.41C408.12 103.41 409.86 100.45 411.97 97.72C416 92.39 420.79 87.65 425.93 83.38C424.12 87.44 422.78 91.82 422.24 96.18C419.44 108.69 425.51 119.43 437.79 123.35C456.23 128.74 475.84 129.21 494.9 127.93C555.94 123.26 616.43 106.68 677.95 111.96C705.07 114.07 731.96 118.5 759.06 120.88C762.53 121.23 766 121.55 769.48 121.81C769.48 121.81 769.48 121.73 769.48 121.69V121.47H769.49C769.49 121.42 769.49 121.35 769.49 121.35H769.48ZM108.03 74.59L90.14 92.21C72.39 108.45 46.67 130.19 21.23 127.92C9.69 126.81 8.65 116.94 13.35 108.19C19.48 96.26 30.85 87.98 42.89 82.62C63.31 73.93 86.16 73.2 108.03 74.59ZM180.28 114.97C180.13 114.6 179.8 114.34 179.46 114.16C179.11 113.99 178.73 113.92 178.35 113.93C177.8 113.31 177.64 112.44 177.69 111.6C177.72 110.73 177.88 109.8 178.46 109.2C179.8 107.25 181.56 105.57 183.67 104.5C190.13 101.42 197.69 102.26 204.45 103.95C202.93 105.34 201.33 106.63 199.65 107.81L195.15 110.62C192.15 112.42 188.77 113.74 185.4 114.66C183.74 115.01 181.95 115.33 180.28 114.98V114.97Z" stroke="#D3AE29" stroke-width="2" stroke-miterlimit="10" mask="url(#path-2-inside-1_160_5254)"/>
<mask id="path-3-inside-2_160_5254" fill="white">
<path d="M153.84 81.56C153.84 81.56 153.84 81.56 153.84 81.57C153.84 81.58 153.86 81.59 153.87 81.6L153.84 81.55V81.56Z"/>
</mask>
<path d="M153.87 81.6L153.163 82.3072L158.907 88.0516L154.727 81.0855L153.87 81.6ZM153.84 81.55L154.697 81.0355L152.84 77.9399V81.55H153.84ZM153.84 81.56C152.84 81.56 152.84 81.56 152.84 81.56C152.84 81.56 152.84 81.56 152.84 81.56C152.84 81.56 152.84 81.56 152.84 81.56C152.84 81.56 152.84 81.56 152.84 81.56C152.84 81.56 152.84 81.56 152.84 81.56C152.84 81.56 152.84 81.56 152.84 81.56C152.84 81.56 152.84 81.56 152.84 81.56C152.84 81.56 152.84 81.56 152.84 81.56C152.84 81.56 152.84 81.56 152.84 81.56C152.84 81.56 152.84 81.56 152.84 81.56C152.84 81.56 152.84 81.56 152.84 81.56C152.84 81.56 152.84 81.56 152.84 81.56C152.84 81.56 152.84 81.56 152.84 81.56C152.84 81.56 152.84 81.56 152.84 81.56C152.84 81.56 152.84 81.56 152.84 81.56C152.84 81.56 152.84 81.56 152.84 81.56C152.84 81.56 152.84 81.56 152.84 81.56C152.84 81.56 152.84 81.56 152.84 81.56C152.84 81.56 152.84 81.56 152.84 81.56C152.84 81.56 152.84 81.56 152.84 81.56C152.84 81.56 152.84 81.56 152.84 81.56C152.84 81.56 152.84 81.56 152.84 81.56C152.84 81.56 152.84 81.56 152.84 81.56C152.84 81.56 152.84 81.56 152.84 81.56C152.84 81.56 152.84 81.56 152.84 81.56C152.84 81.56 152.84 81.56 152.84 81.56C152.84 81.56 152.84 81.56 152.84 81.56C152.84 81.56 152.84 81.56 152.84 81.56C152.84 81.56 152.84 81.56 152.84 81.56C152.84 81.56 152.84 81.56 152.84 81.56C152.84 81.56 152.84 81.56 152.84 81.56C152.84 81.56 152.84 81.56 152.84 81.56C152.84 81.56 152.84 81.56 152.84 81.56C152.84 81.56 152.84 81.56 152.84 81.56C152.84 81.56 152.84 81.56 152.84 81.56C152.84 81.56 152.84 81.56 152.84 81.56C152.84 81.56 152.84 81.56 152.84 81.56C152.84 81.56 152.84 81.56 152.84 81.56C152.84 81.56 152.84 81.56 152.84 81.56C152.84 81.56 152.84 81.56 152.84 81.56C152.84 81.56 152.84 81.56 152.84 81.56C152.84 81.56 152.84 81.56 152.84 81.56C152.84 81.56 152.84 81.56 152.84 81.56C152.84 81.56 152.84 81.56 152.84 81.56C152.84 81.56 152.84 81.5601 152.84 81.5601C152.84 81.5601 152.84 81.5601 152.84 81.5601C152.84 81.5601 152.84 81.5601 152.84 81.5601C152.84 81.5601 152.84 81.5601 152.84 81.5601C152.84 81.5601 152.84 81.5601 152.84 81.5601C152.84 81.5601 152.84 81.5601 152.84 81.5601C152.84 81.5601 152.84 81.5601 152.84 81.5601C152.84 81.5601 152.84 81.5601 152.84 81.5601C152.84 81.5601 152.84 81.5601 152.84 81.5601C152.84 81.5601 152.84 81.5601 152.84 81.5601C152.84 81.5601 152.84 81.5601 152.84 81.5601C152.84 81.5601 152.84 81.5601 152.84 81.5601C152.84 81.5601 152.84 81.5601 152.84 81.5601C152.84 81.5601 152.84 81.5601 152.840¨G	ùU  0¨G	ùU                  PwlùU          ajùU  ˜¨G	ùU          P¨G	ùU   @      P¨G	ùU          4 81.5601 152.84 81.5601 152.84 81.5601C152.84 81.5601 152.84 81.5601 152.84 81.5601C152.84 81.5601 152.84 81.5601 152.84 81.5601C152.84 81.5601 152.84 81.5601 152.84 81.5601C152.84 81.5601 152.84 81.5601 152.84 81.5601C152.84 81.5601 152.84 81.5601 152.84 81.5601C152.84 81.5601 152.84 81.5601 152.84 81.5601C152.84 81.5601 152.84 81.5601 152.84 81.5601C152.84 81.5601 152.84 81.5601 152.84 81.5601C152.84 81.5601 152.84 81.5601 152.84 81.5601C152.84 81.5601 152.84 81.5601 152.84 81.5601C152.84 81.5601 152.84 81.5601 152.84 81.5601C152.84 81.5601 152.84 81.5601 152.84 81.5601C152.84 81.5601 152.84 81.5601 152.84 81.5601C152.84 81.5601 152.84 81.5601 152.84 81.5601C152.84 81.5601 152.84 81.5601 152.84 81.5601C152.84 81.5601 152.84 81.5601 152.84 81.5601C152.84 81.5601 152.84 81.5601 152.84 81.5601C152.84 81.5601 152.84 81.5601 152.84 81.5601C152.84 81.5601 152.84 81.5601 152.84 81.5601C152.84 81.5601 152.84 81.5601 152.84 81.5601C152.84 81.5601 152.84 81.5601 152.84 81.5601C152.84 81.5601 152.84 81.5601 152.84 81.5601C152.84 81.5601 152.84 81.5601 152.84 81.5601C152.84 81.5601 152.84 81.5601 152.84 81.5601C152.84 81.5601 152.84 81.5601 152.84 81.5601C152.84 81.5601 152.84 81.5601 152.84 81.5601C152.84 81.5601 152.84 81.5601 152.84 81.5601C152.84 81.5601 152.84 81.5601 152.84 81.5601C152.84 81.5601 152.84 81.5601 152.84 81.5601C152.84 81.5601 152.84 81.5601 152.84 81.5601C152.84 81.5601 152.84 81.5601 152.84 81.5601C152.84 81.5601 152.84 81.5601 152.84 81.5601C152.84 81.5601 152.84 81.5601 152.84 81.5601C152.84 81.5601 152.84 81.5601 152.84 81.5601C152.84 81.5601 152.84 81.5601 152.84 81.5601C152.84 81.5601 152.84 81.5601 152.84 81.5601C152.84 81.5601 152.84 81.5601 152.84 81.5601C152.84 81.5601 152.84 81.5601 152.84 81.5601C152.84 81.5601 152.84 81.5601 152.84 81.5601C152.84 81.5601 152.84 81.5601 152.84 81.5601C152.84 81.5601 152.84 81.5601 152.84 81.5601C152.84 81.5601 152.84 81.5601 152.84 81.5601C152.84 81.5601 152.84 81.5601 152.84 81.5601C152.84 81.5601 152.84 81.5601 152.84 81.5601C152.84 81.5601 152.84 81.5601 152.84 81.5601C152.84 81.5601 152.84 81.5601 152.84 81.5601C152.84 81.5601 152.84 81.5601 152.84 81.5601C152.84 81.5601 152.84 81.5601 152.84 81.5601C152.84 81.5601 152.84 81.5601 152.84 81.5601C152.84 81.5601 152.84 81.5601 152.84 81.5601C152.84 81.5601 152.84 81.5601 152.84 81.5601C152.84 81.5601 152.84 81.5602 152.84 81.5602C152.84 81.5602 152.84 81.5602 152.84 81.5602C152.84 81.5602 152.84 81.5602 152.84 81.5602C152.84 81.5602 152.84 81.5602 152.84 81.5602C152.84 81.5602 152.84 81.5602 152.84 81.5602C152.84 81.5602 152.84 81.5602 152.84 81.5602C152.84 81.5602 152.84 81.5602 152.84 81.5602C152.84 81.5602 152.84 81.5602 152.84 81.5602C152.84 81.5602 152.84 81.5602 152.84 81.5602C152.84 81.5602 152.84 81.5602 152.84 81.5602C152.84 81.5602 152.84 81.5602 152.84 81.5602C152.84 81.5602 152.84 81.5602 152.84 81.5602C152.84 81.5602 152.84 81.5602 152.84 81.5602C152.84 81.5602 152.84 81.5602 152.84 81.5602C152.84 81.5602 152.84 81.5602 152.84 81.5602C152.84 81.5602 152.84 81.5602 152.84 81.5602C152.84 81.5602 152.84 81.5602 152.84 81.5602C152.84 81.5602 152.84 81.5602 152.84 81.5602C152.84 81.5602 152.84 81.5602 152.84 81.5602C152.84 81.5602 152.84 81.5602 152.84 81.5602C152.84 81.5602 152.84 81.5602 152.84 81.5602C152.84 81.5602 152.84 81.5602 152.84 81.5602C152.84 81.5602 152.84 81.5602 152.84 81.5602C152.84 81.5602 152.84 81.5602 152.84 81.5602C152.84 81.5602 152.84 81.5602 152.84 81.5602C152.84 81.5602 152.84 81.5602 152.84 81.5602C152.84 81.5602 152.84 81.5602 152.84 81.5602C152.84 81.5602 152.84 81.5602 152.84 81.5602C152.84 81.5602 152.84 81.5603 152.84 81.5603C152.84 81.5603 152.84 81.5603 152.84 81.5603C152.84 81.5603 152.84 81.5603 152.84 81.5603C152.84 81.5603 152.84 81.5603 152.84 81.5603C152.84 81.5603 152.84 81.5603 152.84 81.5603C152.84 81.5603 152.84 81.5603 152.84 81.5603C152.84 81.5603 152.84 81.5603 152.84 81.5603C152.84 81.5603 152.84 81.5603 152.84 81.5603C152.84 81.5603 152.84 81.5603 152.84 81.5603C152.84 81.5603 152.84 81.5603 152.84 81.5603C152.84 81.5603 152.84 81.5603 152.84 81.5603C152.84 81.5603 152.84 81.5603 152.84 81.5603C152.84 81.5603 152.84 81.5603 152.84 81.5603C152.84 81.5603 152.84 81.5603 152.84 81.5603C152.84 81.5603 152.84 81.5603 152.84 81.5603C152.84 81.5603 152.84 81.5603 152.84 81.5603C152.84 81.5603 152.84 81.5603 152.84 81.5603C152.84 81.5603 152.84 81.5603 152.84 81.5603C152.84 81.5603 152.84 81.5603 152.84 81.5603C152.84 81.5603 152.84 81.5603 152.84 81.5603C152.84 81.5604 152.84 81.5604 152.84 81.5604C152.84 81.5604 152.84 81.5604 152.84 81.5604C152.84 81.5604 152.84 81.5604 152.84 81.5604C152.84 81.5604 152.84 81.5604 152.84 81.5604C152.84 81.5604 152.84 81.5604 152.84 81.5604C152.84 81.5604 152.84 81.5604 152.84 81.5604C152.84 81.5604 152.84 81.5604 152.84 81.5604C152.84 81.5604 152.84 81.5604 152.84 81.5604C152.84 81.5604 152.84 81.5604 152.84 81.5604C152.84 81.5604 152.84 81.5604 152.84 81.5604C152.84 81.5604 152.84 81.5604 152.84 81.5604C152.84 81.5604 152.84 81.5604 152.84 81.5604C152.84 81.5604 152.84 81.5604 152.84 81.5604C152.84 81.5604 152.84 81.5604 152.84 81.5604C152.84 81.5604 152.84 81.5604 152.84 81.5604C152.84 81.5604 152.84 81.5604 152.84 81.5605C152.84 81.5605 152.84 81.5605 152.84 81.5605C152.84 81.5605 152.84 81.5605 152.84 81.5605C152.84 81.5605 152.84 81.5605 152.84 81.5605C152.84 81.5605 152.84 81.5605 152.84 81.5605C152.84 81.5605 152.84 81.5605 152.84 81.5605C152.84 81.5605 152.84 81.5605 152.84 81.5605C152.84 81.5605 152.84 81.5605 152.84 81.5605C152.84 81.5605 152.84 81.5605 152.84 81.5605C152.84 81.5605 152.84 81.5605 152.84 81.5605C152.84 81.5605 152.84 81.5605 152.84 81.5605C152.84 81.5605 152.84 81.5605 152.84 81.5605C152.84 81.5605 152.84 81.5605 152.84 81.5605C152.84 81.5605 152.84 81.5605 152.84 81.5605C152.84 81.5605 152.84 81.5606 152.84 81.5606C152.84 81.5606 152.84 81.5606 152.84 81.5606C152.84 81.5606 152.84 81.5606 152.84 81.5606C152.84 81.5606 152.84 81.5606 152.84 81.5606C152.84 81.5606 152.84 81.5606 152.84 81.5606C152.84 81.5606 152.84 81.5606 152.84 81.5606C152.84 81.5606 152.84 81.5606 152.84 81.5606C152.84 81.5606 152.84 81.5606 152.84 81.5606C152.84 81.5606 152.84 81.5606 152.84 81.5606C152.84 81.5606 152.84 81.5606 152.84 81.5606C152.84 81.5606 152.84 81.5606 152.84 81.5606C152.84 81.5606 152.84 81.5606 152.84 81.5606C152.84 81.5607 152.84 81.5607 152.84 81.5607C152.84 81.5607 152.84 81.5607 152.84 81.5607C152.84 81.5607 152.84 81.5607 152.84 81.5607C152.84 81.5607 152.84 81.5607 152.84 81.5607C152.84 81.5607 152.84 81.5607 152.84 81.5607C152.84 81.5607 152.84 81.5607 152.84 81.5607C152.84 81.5607 152.84 81.5607 152.84 81.5607C152.84 81.5607 152.84 81.5607 152.84 81.5607C152.84 81.5607 152.84 81.5607 152.84 81.5607C152.84 81.5607 152.84 81.5607 152.84 81.5607C152.84 81.5607 152.84 81.5608 152.84 81.5608C152.84 81.5608 152.84 81.5608 152.84 81.5608C152.84 81.5608 152.84 81.5608 152.84 81.5608C152.84 81.5608 152.84 81.5608 152.84 81.5608C152.84 81.5608 152.84 81.5608 152.84 81.5608C152.84 81.5608 152.84 81.5608 152.84 81.5608C152.84 81.5608 152.84 81.5608 152.84 81.5608C152.84 81.5608 152.84 81.5608 152.84 81.5608C152.84 81.5608 152.84 81.5608 152.84 81.5608C152.84 81.5608 152.84 81.5608 152.84 81.5608C152.84 81.5609 152.84 81.5609 152.84 81.5609C152.84 81.5609 152.84 81.5609 152.84 81.5609C152.84 81.5609 152.84 81.5609 152.84 81.5609C152.84 81.5609 152.84 81.5609 152.84 81.5609C152.84 81.5609 152.84 81.5609 152.84 81.5609C152.84 81.5609 152.84 81.5609 152.84 81.5609C152.84 81.5609 152.84 81.5609 152.84 81.5609C152.84 81.5609 152.84 81.5609 152.84 81.5609C152.84 81.5609 152.84 81.5609 152.84 81.561C152.84 81.561 152.84 81.561 152.84 81.561C152.84 81.561 152.84 81.561 152.84 81.561C152.84 81.561 152.84 81.561 152.84 81.561C152.84 81.561 152.84 81.561 152.84 81.561C152.84 81.561 152.84 81.561 152.84 81.561C152.84 81.561 152.84 81.561 152.84 81.561C152.84 81.561 152.84 81.561 152.84 81.561C152.84 81.561 152.84 81.561 152.84 81.561C152.84 81.5611 152.84 81.5611 152.84 81.5611C152.84 81.5611 152.84 81.5611 152.84 81.5611C152.84 81.5611 152.84 81.5611 152.84 81.5611C152.84 81.5611 152.84 81.5611 152.84 81.5611C152.84 81.5611 152.84 81.5611 152.84 81.5611C152.84 81.5611 152.84 81.5611 152.84 81.5611C152.84 81.5611 152.84 81.5611 152.84 81.5611C152.84 81.5611 152.84 81.5611 152.84 81.5612C152.84 81.5612 152.84 81.5612 152.84 81.5612C152.84 81.5612 152.84 81.5612 152.84 81.5612C152.84 81.5612 152.84 81.5612 152.84 81.5612C152.84 81.5612 152.84 81.5612 152.84 81.5612C152.84 81.5612 152.84 81.5612 152.84 81.5612C152.84 81.5612 152.84 81.5612 152.84 81.5612C152.84 81.5612 152.84 81.5612 152.84 81.5613C152.84 81.5613 152.84 81.5613 152.84 81.5613C152.84 81.5613 152.84 81.5613 152.84 81.5613C152.84 81.5613 152.84 81.5613 152.84 81.5613C152.84 81.5613 152.84 81.5613 152.84 81.5613C152.84 81.5613 152.84 81.5613 152.84 81.5613C152.84 81.5613 152.84 81.5613 152.84 81.5613C152.84 81.5613 152.84 81.5613 152.84 81.5614C152.84 81.5614 152.84 81.5614 152.84 81.5614C152.84 81.5614 152.84 81.5614 152.84 81.5614C152.84 81.5614 152.84 81.5614 152.84 81.5614C152.84 81.5614 152.84 81.5614 152.84 81.5614C152.84 81.5614 152.84 81.5614 152.84 81.5614C152.84 81.5614 152.84 81.5614 152.84 81.5614C152.84 81.5615 152.84 81.5615 152.84 81.5615C152.84 81.5615 152.84 81.5615 152.84 81.5615C152.84 81.5615 152.84 81.5615 152.84 81.5615C152.84 81.5615 152.84 81.5615 152.84 81.5615C152.84 81.5615 152.84 81.5615 152.84 81.5615C152.84 81.5615 152.84 81.5615 152.84 81.5615C152.84 81.5615 152.84 81.5616 152.84 81.5616C152.84 81.5616 152.84 81.5616 152.84 81.5616C152.84 81.5616 152.84 81.5616 152.84 81.5616C152.84 81.5616 152.84 81.5616 152.84 81.5616C152.84 81.5616 152.84 81.5616 152.84 81.5616C152.84 81.5616 152.84 81.5616 152.84 81.5616C152.84 81.5617 152.84 81.5617 152.84 81.5617C152.84 81.5617 152.84 81.5617 152.84 81.5617C152.84 81.5617 152.84 81.5617 152.84 81.5617C152.84 81.5617 152.84 81.5617 152.84 81.5617C152.84 81.5617 152.84 81.5617 152.84 81.5617C152.84 81.5617 152.84 81.5617 152.84 81.5618C152.84 81.5618 152.84 81.5618 152.84 81.5618C152.84 81.5618 152.84 81.5618 152.84 81.5618C152.84 81.5618 152.84 81.5618 152.84 81.5618C152.84 81.5618 152.84 81.5618 152.84 81.5618C152.84 81.5618 152.84 81.5618 152.84 81.5618C152.84 81.5618 152.84 81.5619 152.84 81.5619C152.84 81.5619 152.84 81.5619 152.84 81.5619C152.84 81.5619 152.84 81.5619 152.84 81.5619C152.84 81.5619 152.84 81.5619 152.84 81.5619C152.84 81.5619 152.84 81.5619 152.84 81.5619C152.84 81.5619 152.84 81.562 152.84 81.562C152.84 81.562 152.84 81.562 152.84 81.562C152.84 81.562 152.84 81.562 152.84 81.562C152.84 81.562 152.84 81.562 152.84 81.562C152.84 81.562 152.84 81.562 152.84 81.562C152.84 81.562 152.84 81.562 152.84 81.5621C152.84 81.5621 152.84 81.5621 152.84 81.5621C152.84 81.5621 152.84 81.5621 152.84 81.5621C152.84 81.5621 152.84 81.5621 152.84 81.5621C152.84 81.5621 152.84 81.5621 152.84 81.5621C152.84 81.5621 152.84 81.5622 152.84 81.5622C152.84 81.5622 152.84 81.5622 152.84 81.5622C152.84 81.5622 152.84 81.5622 152.84 81.5622C152.84 81.5622 152.84 81.5622 152.84 81.5622C152.84 81.5622 152.84 81.5622 152.84 81.5622C152.84 81.5623 152.84 81.5623 152.84 81.5623C152.84 81.5623 152.84 81.5623 152.84 81.5623C152.84 81.5623 152.84 81.5623 152.84 81.5623C152.84 81.5623 152.84 81.5623 152.84 81.5623C152.84 81.5623 152.84 81.5623 152.84 81.5624C152.84 81.5624 152.84 81.5624 152.84 81.5624C152.84 81.5624 152.84 81.5624 152.84 81.5624C152.84 81.5624 152.84 81.5624 152.84 81.5624C152.84 81.5624 152.84 81.5624 152.84 81.5624C152.84 81.5624 152.84 81.5625 152.84 81.5625C152.84 81.5625 152.84 81.5625 152.84 81.5625C152.84 81.5625 152.84 81.5625 152.84 81.5625C152.84 81.5625 152.84 81.5625 152.84 81.5625C152.84 81.5625 152.84 81.5625 152.84 81.5626C152.84 81.5626 152.84 81.5626 152.84 81.5626C152.84 81.5626 152.84 81.5626 152.84 81.5626C152.84 81.5626 152.84 81.5626 152.84 81.5626C152.84 81.5626 152.84 81.5626 152.84 81.5626C152.84 81.5627 152.84 81.5627 152.84 81.5627C152.84 81.5627 152.84 81.5627 152.84 81.5627C152.84 81.5627 152.84 81.5627 152.84 81.5627C152.84 81.5627 152.84 81.5627 152.84 81.5627C152.84 81.5628 152.84 81.5628 152.84 81.5628C152.84 81.5628 152.84 81.5628 152.84 81.5628C152.84 81.5628 152.84 81.5628 152.84 81.5628C152.84 81.5628 152.84 81.5628 152.84 81.5628C152.84 81.5629 152.84 81.5629 152.84 81.5629C152.84 81.5629 152.84 81.5629 152.84 81.5629C152.84 81.5629 152.84 81.5629 152.84 81.5629C152.84 81.5629 152.84 81.5629 152.84 81.5629C152.84 81.563 152.84 81.563 152.84 81.563C152.84 81.563 152.84 81.563 152.84 81.563C152.84 81.563 152.84 81.563 152.84 81.563C152.84 81.563 152.84 81.563 152.84 81.5631C152.84 81.5631 152.84 81.5631 152.84 81.5631C152.84 81.5631 152.84 81.5631 152.84 81.5631C152.84 81.5631 152.84 81.5631 152.84 81.5631C152.84 81.5631 152.84 81.5631 152.84 81.5632C152.84 81.5632 152.84 81.5632 152.84 81.5632C152.84 81.5632 152.84 81.5632 152.84 81.5632C152.84 81.5632 152.84 81.5632 152.84 81.5632C152.84 81.5632 152.84 81.5633 152.84 81.5633C152.84 81.5633 152.84 81.5633 152.84 81.5633C152.84 81.5633 152.84 81.5633 152.84 81.5633C152.84 81.5633 152.84 81.5633 152.84 81.5634C152.84 81.5634 152.84 81.5634 152.84 81.5634C152.84 81.5634 152.84 81.5634 152.84 81.5634C152.84 81.5634 152.84 81.5634 152.84 81.5634C152.84 81.5634 152.84 81.5635 152.84 81.5635C152.84 81.5635 152.84 81.5635 152.84 81.5635C152.84 81.5635 152.84 81.5635 152.84 81.5635C152.84 81.5635 152.84 81.5635 152.84 81.5636C152.84 81.5636 152.84 81.5636 152.84 81.5636C152.84 81.5636 152.84 81.5636 152.84 81.5636C152.84 81.5636 152.84 81.5636 152.84 81.5636C152.84 81.5636 152.84 81.5637 152.84 81.5637C152.84 81.5637 152.84 81.5637 152.84 81.5637C152.84 81.5637 152.84 81.5637 152.84 81.5637C152.84 81.5637 152.84 81.5637 152.84 81.5638C152.84 81.5638 152.84 81.5638 152.84 81.5638C152.84 81.5638 152.84 81.5638 152.84 81.5638C152.84 81.5638 152.84 81.5638 152.84 81.5638C152.84 81.5639 152.84 81.5639 152.84 81.5639C152.84 81.5639 152.84 81.5639 152.84 81.5639C152.84 81.5639 152.84 81.5639 152.84 81.5639C152.84 81.564 152.84 81.564 152.84 81.564C152.84 81.564 152.84 81.564 152.84 81.564C152.84 81.564 152.84 81.564 152.84 81.564C152.84 81.564 152.84 81.5641 152.84 81.5641C152.84 81.5641 152.84 81.5641 152.84 81.5641C152.84 81.5641 152.84 81.5641 152.84 81.5641C152.84 81.5641 152.84 81.5642 152.84 81.5642C152.84 81.5642 152.84 81.5642 152.84 81.5642C152.84 81.5642 152.84 81.5642 152.84 81.5642C152.84 81.5642 152.84 81.5643 152.84 81.5643C152.84 81.5643 152.84 81.5643 152.84 81.5643C152.84 81.5643 152.84 81.5643 152.84 81.5643C152.84 81.5643 152.84 81.5644 152.84 81.5644C152.84 81.5644 152.84 81.5644 152.84 81.5644C152.84 81.5644 152.84 81.5644 152.84 81.5644C152.84 81.5644 152.84 81.5645 152.84 81.5645C152.84 81.5645 152.84 81.5645 152.84 81.5645C152.84 81.5645 152.84 81.5645 152.84 81.5645C152.84 81.5645 152.84 81.5646 152.84 81.5646C152.84 81.5646 152.84 81.5646 152.84 81.5646C152.84 81.5646 152.84 81.5646 152.84 81.5646C152.84 81.5646 152.84 81.5647 152.84 81.5647C152.84 81.5647 152.84 81.5647 152.84 81.5647C152.84 81.5647 152.84 81.5647 152.84 81.5647C152.84 81.5648 152.84 81.5648 152.84 81.5648C152.84 81.5648 152.84 81.5648 152.84 81.5648C152.84 81.5648 152.84 81.5648 152.84 81.5648C152.84 81.5649 152.84 81.5649 152.84 81.5649C152.84 81.5649 152.84 81.5649 152.84 81.5649C152.84 81.5649 152.84 81.5649 152.84 81.565C152.84 81.565 152.84 81.565 152.84 81.565C152.84 81.565 152.84 81.565 152.84 81.565C152.84 81.565 152.84 81.5651 152.84 81.5651C152.84 81.5651 152.84 81.5651 152.84 81.5651C152.84 81.5651 152.84 81.5651 152.84 81.5651C152.84 81.5652 152.84 81.5652 152.84 81.5652C152.84 81.5652 152.84 81.5652 152.84 81.5652C152.84 81.5652 152.84 81.5652 152.84 81.5653C152.84 81.5653 152.84 81.5653 152.84 81.5653C152.84 81.5653 152.84 81.5653 152.84 81.5653C152.84 81.5653 152.84 81.5654 152.84 81.5654C152.84 81.5654 152.84 81.5654 152.84 81.5654C152.84 81.5654 152.84 81.5654 152.84 81.5654C152.84 81.5655 152.84 81.5655 152.84 81.5655C152.84 81.5655 152.84 81.5655 152.84 81.5655C152.84 81.5655 152.84 81.5656 152.84 81.5656C152.84 81.5656 152.84 81.5656 152.84 81.5656C152.84 81.5656 152.84 81.5656 152.84 81.5656C152.84 81.5657 152.84 81.5657 152.84 81.5657C152.84 81.5657 152.80¨G	ùU  0¨G	ùU                  PwlùU          ajùU  ˜¨G	ùU          P¨G	ùU   @      P¨G	ùU          84 81.5658C152.84 81.5658 152.84 81.5658 152.84 81.5658C152.84 81.5659 152.84 81.5659 152.84 81.5659C152.84 81.5659 152.84 81.5659 152.84 81.5659C152.84 81.5659 152.84 81.566 152.84 81.566C152.84 81.566 152.84 81.566 152.84 81.566C152.84 81.566 152.84 81.566 152.84 81.5661C152.84 81.5661 152.84 81.5661 152.84 81.5661C152.84 81.5661 152.84 81.5661 152.84 81.5661C152.84 81.5661 152.84 81.5662 152.84 81.5662C152.84 81.5662 152.84 81.5662 152.84 81.5662C152.84 81.5662 152.84 81.5662 152.84 81.5663C152.84 81.5663 152.84 81.5663 152.84 81.5663C152.84 81.5663 152.84 81.5663 152.84 81.5663C152.84 81.5664 152.84 81.5664 152.84 81.5664C152.84 81.5664 152.84 81.5664 152.84 81.5664C152.84 81.5664 152.84 81.5665 152.84 81.5665C152.84 81.5665 152.84 81.5665 152.84 81.5665C152.84 81.5665 152.84 81.5666 152.84 81.5666C152.84 81.5666 152.84 81.5666 152.84 81.5666C152.84 81.5666 152.84 81.5666 152.84 81.5667C152.84 81.5667 152.84 81.5667 152.84 81.5667C152.84 81.5667 152.84 81.5667 152.84 81.5667C152.84 81.5668 152.84 81.5668 152.84 81.5668C152.84 81.5668 152.84 81.5668 152.84 81.5668C152.84 81.5668 152.84 81.5669 152.84 81.5669C152.84 81.5669 152.84 81.5669 152.84 81.5669C152.84 81.5669 152.84 81.567 152.84 81.567C152.84 81.567 152.84 81.567 152.84 81.567C152.84 81.567 152.84 81.567 152.84 81.5671C152.84 81.5671 152.84 81.5671 152.84 81.5671C152.84 81.5671 152.84 81.5671 152.84 81.5672C152.84 81.5672 152.84 81.5672 152.84 81.5672C152.84 81.5672 152.84 81.5672 152.84 81.5673C152.84 81.5673 152.84 81.5673 152.84 81.5673C152.84 81.5673 152.84 81.5673 152.84 81.5673C152.84 81.5674 152.84 81.5674 152.84 81.5674C152.84 81.5674 152.84 81.5674 152.84 81.5674C152.84 81.5675 152.84 81.5675 152.84 81.5675C152.84 81.5675 152.84 81.5675 152.84 81.5675C152.84 81.5676 152.84 81.5676 152.84 81.5676C152.84 81.5676 152.84 81.5676 152.84 81.5676C152.84 81.5676 152.84 81.5677 152.84 81.5677C152.84 81.5677 152.84 81.5677 152.84 81.5677C152.84 81.5677 152.84 81.5678 152.84 81.5678C152.84 81.5678 152.84 81.5678 152.84 81.5678C152.84 81.5678 152.84 81.5679 152.84 81.5679C152.84 81.5679 152.84 81.5679 152.84 81.5679C152.84 81.5679 152.84 81.568 152.84 81.568C152.84 81.568 152.84 81.568 152.84 81.568C152.84 81.568 152.84 81.5681 152.84 81.5681C152.84 81.5681 152.84 81.5681 152.84 81.5681C152.84 81.5681 152.84 81.5682 152.84 81.5682C152.84 81.5682 152.84 81.5682 152.84 81.5682C152.84 81.5683 152.84 81.5683 152.84 81.5683C152.84 81.5683 152.84 81.5683 152.84 81.5683C152.84 81.5684 152.84 81.5684 152.84 81.5684C152.84 81.5684 152.84 81.5684 152.84 81.5684C152.84 81.5685 152.84 81.5685 152.84 81.5685C152.84 81.5685 152.84 81.5685 152.84 81.5685C152.84 81.5686 152.84 81.5686 152.84 81.5686C152.84 81.5686 152.84 81.5686 152.84 81.5687C152.84 81.5687 152.84 81.5687 152.84 81.5687C152.84 81.5687 152.84 81.5687 152.84 81.5688C152.84 81.5688 152.84 81.5688 152.84 81.5688C152.84 81.5688 152.84 81.5688 152.84 81.5689C152.84 81.5689 152.84 81.5689 152.84 81.5689C152.84 81.5689 152.84 81.569 152.84 81.569C152.84 81.569 152.84 81.569 152.84 81.569C152.84 81.569 152.84 81.5691 152.84 81.5691C152.84 81.5691 152.84 81.5691 152.84 81.5691C152.84 81.5692 152.84 81.5692 152.84 81.5692C152.84 81.5692 152.84 81.5692 152.84 81.5692C152.84 81.5693 152.84 81.5693 152.84 81.5693C152.84 81.5693 152.84 81.5693 152.84 81.5694C152.84 81.5694 152.84 81.5694 152.84 81.5694C152.84 81.5694 152.84 81.5695 152.84 81.5695C152.84 81.5695 152.84 81.5695 152.84 81.5695C152.84 81.5695 152.84 81.5696 152.84 81.5696C152.84 81.5696 152.84 81.5696 152.84 81.5696C152.84 81.5697 152.84 81.5697 152.84 81.5697C152.84 81.5697 152.84 81.5697 152.84 81.5698C152.84 81.5698 152.84 81.5698 152.84 81.5698C152.84 81.5698 152.84 81.5699 152.84 81.5699C152.84 81.5699 152.84 81.5699 152.84 81.5699C152.84 81.5699 152.84 81.57 152.84 81.57C152.84 81.57 152.84 81.57 152.84 81.57H154.84C154.84 81.57 154.84 81.57 154.84 81.57C154.84 81.57 154.84 81.5699 154.84 81.5699C154.84 81.5699 154.84 81.5699 154.84 81.5699C154.84 81.5699 154.84 81.5698 154.84 81.5698C154.84 81.5698 154.84 81.5698 154.84 81.5698C154.84 81.5697 154.84 81.5697 154.84 81.5697C154.84 81.5697 154.84 81.5697 154.84 81.5696C154.84 81.5696 154.84 81.5696 154.84 81.5696C154.84 81.5696 154.84 81.5695 154.84 81.5695C154.84 81.5695 154.84 81.5695 154.84 81.5695C154.84 81.5695 154.84 81.5694 154.84 81.5694C154.84 81.5694 154.84 81.5694 154.84 81.5694C154.84 81.5693 154.84 81.5693 154.84 81.5693C154.84 81.5693 154.84 81.5693 154.84 81.5692C154.84 81.5692 154.84 81.5692 154.84 81.5692C154.84 81.5692 154.84 81.5692 154.84 81.5691C154.84 81.5691 154.84 81.5691 154.84 81.5691C154.84 81.5691 154.84 81.569 154.84 81.569C154.84 81.569 154.84 81.569 154.84 81.569C154.84 81.569 154.84 81.5689 154.84 81.5689C154.84 81.5689 154.84 81.5689 154.84 81.5689C154.84 81.5688 154.84 81.5688 154.84 81.5688C154.84 81.5688 154.84 81.5688 154.84 81.5688C154.84 81.5687 154.84 81.5687 154.84 81.5687C154.84 81.5687 154.84 81.5687 154.84 81.5687C154.84 81.5686 154.84 81.5686 154.84 81.5686C154.84 81.5686 154.84 81.5686 154.84 81.5685C154.84 81.5685 154.84 81.5685 154.84 81.5685C154.84 81.5685 154.84 81.5685 154.84 81.5684C154.84 81.5684 154.84 81.5684 154.84 81.5684C154.84 81.5684 154.84 81.5684 154.84 81.5683C154.84 81.5683 154.84 81.5683 154.84 81.5683C154.84 81.5683 154.84 81.5683 154.84 81.5682C154.84 81.5682 154.84 81.5682 154.84 81.5682C154.84 81.5682 154.84 81.5681 154.84 81.5681C154.84 81.5681 154.84 81.5681 154.84 81.5681C154.84 81.5681 154.84 81.568 154.84 81.568C154.84 81.568 154.84 81.568 154.84 81.568C154.84 81.568 154.84 81.5679 154.84 81.5679C154.84 81.5679 154.84 81.5679 154.84 81.5679C154.84 81.5679 154.84 81.5678 154.84 81.5678C154.84 81.5678 154.84 81.5678 154.84 81.5678C154.84 81.5678 154.84 81.5677 154.84 81.5677C154.84 81.5677 154.84 81.5677 154.84 81.5677C154.84 81.5677 154.84 81.5676 154.84 81.5676C154.84 81.5676 154.84 81.5676 154.84 81.5676C154.84 81.5676 154.84 81.5676 154.84 81.5675C154.84 81.5675 154.84 81.5675 154.84 81.5675C154.84 81.5675 154.84 81.5675 154.84 81.5674C154.84 81.5674 154.84 81.5674 154.84 81.5674C154.84 81.5674 154.84 81.5674 154.84 81.5673C154.84 81.5673 154.84 81.5673 154.84 81.5673C154.84 81.5673 154.84 81.5673 154.84 81.5673C154.84 81.5672 154.84 81.5672 154.84 81.5672C154.84 81.5672 154.84 81.5672 154.84 81.5672C154.84 81.5671 154.84 81.5671 154.84 81.5671C154.84 81.5671 154.84 81.5671 154.84 81.5671C154.84 81.567 154.84 81.567 154.84 81.567C154.84 81.567 154.84 81.567 154.84 81.567C154.84 81.567 154.84 81.5669 154.84 81.5669C154.84 81.5669 154.84 81.5669 154.84 81.5669C154.84 81.5669 154.84 81.5668 154.84 81.5668C154.84 81.5668 154.84 81.5668 154.84 81.5668C154.84 81.5668 154.84 81.5668 154.84 81.5667C154.84 81.5667 154.84 81.5667 154.84 81.5667C154.84 81.5667 154.84 81.5667 154.84 81.5667C154.84 81.5666 154.84 81.5666 154.84 81.5666C154.84 81.5666 154.84 81.5666 154.84 81.5666C154.84 81.5666 154.84 81.5665 154.84 81.5665C154.84 81.5665 154.84 81.5665 154.84 81.5665C154.84 81.5665 154.84 81.5664 154.84 81.5664C154.84 81.5664 154.84 81.5664 154.84 81.5664C154.84 81.5664 154.84 81.5664 154.84 81.5663C154.84 81.5663 154.84 81.5663 154.84 81.5663C154.84 81.5663 154.84 81.5663 154.84 81.5663C154.84 81.5662 154.84 81.5662 154.84 81.5662C154.84 81.5662 154.84 81.5662 154.84 81.5662C154.84 81.5662 154.84 81.5661 154.84 81.5661C154.84 81.5661 154.84 81.5661 154.84 81.5661C154.84 81.5661 154.84 81.5661 154.84 81.5661C154.84 81.566 154.84 81.566 154.84 81.566C154.84 81.566 154.84 81.566 154.84 81.566C154.84 81.566 154.84 81.5659 154.84 81.5659C154.84 81.5659 154.84 81.5659 154.84 81.5659C154.84 81.5659 154.84 81.5659 154.84 81.5658C154.84 81.5658 154.84 81.5658 154.84 81.5658C154.84 81.5658 154.84 81.5658 154.84 81.5658C154.84 81.5658 154.84 81.5657 154.84 81.5657C154.84 81.5657 154.84 81.5657 154.84 81.5657C154.84 81.5657 154.84 81.5657 154.84 81.5656C154.84 81.5656 154.84 81.5656 154.84 81.5656C154.84 81.5656 154.84 81.5656 154.84 81.5656C154.84 81.5656 154.84 81.5655 154.84 81.5655C154.84 81.5655 154.84 81.5655 154.84 81.5655C154.84 81.5655 154.84 81.5655 154.84 81.5654C154.84 81.5654 154.84 81.5654 154.84 81.5654C154.84 81.5654 154.84 81.5654 154.84 81.5654C154.84 81.5654 154.84 81.5653 154.84 81.5653C154.84 81.5653 154.84 81.5653 154.84 81.5653C154.84 81.5653 154.84 81.5653 154.84 81.5653C154.84 81.5652 154.84 81.5652 154.84 81.5652C154.84 81.5652 154.84 81.5652 154.84 81.5652C154.84 81.5652 154.84 81.5652 154.84 81.5651C154.84 81.5651 154.84 81.5651 154.84 81.5651C154.84 81.5651 154.84 81.5651 154.84 81.5651C154.84 81.5651 154.84 81.565 154.84 81.565C154.84 81.565 154.84 81.565 154.84 81.565C154.84 81.565 154.84 81.565 154.84 81.565C154.84 81.5649 154.84 81.5649 154.84 81.5649C154.84 81.5649 154.84 81.5649 154.84 81.5649C154.84 81.5649 154.84 81.5649 154.84 81.5648C154.84 81.5648 154.84 81.5648 154.84 81.5648C154.84 81.5648 154.84 81.5648 154.84 81.5648C154.84 81.5648 154.84 81.5648 154.84 81.5647C154.84 81.5647 154.84 81.5647 154.84 81.5647C154.84 81.5647 154.84 81.5647 154.84 81.5647C154.84 81.5647 154.84 81.5646 154.84 81.5646C154.84 81.5646 154.84 81.5646 154.84 81.5646C154.84 81.5646 154.84 81.5646 154.84 81.5646C154.84 81.5646 154.84 81.5645 154.84 81.5645C154.84 81.5645 154.84 81.5645 154.84 81.5645C154.84 81.5645 154.84 81.5645 154.84 81.5645C154.84 81.5645 154.84 81.5644 154.84 81.5644C154.84 81.5644 154.84 81.5644 154.84 81.5644C154.84 81.5644 154.84 81.5644 154.84 81.5644C154.84 81.5644 154.84 81.5643 154.84 81.5643C154.84 81.5643 154.84 81.5643 154.84 81.5643C154.84 81.5643 154.84 81.5643 154.84 81.5643C154.84 81.5643 154.84 81.5642 154.84 81.5642C154.84 81.5642 154.84 81.5642 154.84 81.5642C154.84 81.5642 154.84 81.5642 154.84 81.5642C154.84 81.5642 154.84 81.5641 154.84 81.5641C154.84 81.5641 154.84 81.5641 154.84 81.5641C154.84 81.5641 154.84 81.5641 154.84 81.5641C154.84 81.5641 154.84 81.564 154.84 81.564C154.84 81.564 154.84 81.564 154.84 81.564C154.84 81.564 154.84 81.564 154.84 81.564C154.84 81.564 154.84 81.564 154.84 81.5639C154.84 81.5639 154.84 81.5639 154.84 81.5639C154.84 81.5639 154.84 81.5639 154.84 81.5639C154.84 81.5639 154.84 81.5639 154.84 81.5638C154.84 81.5638 154.84 81.5638 154.84 81.5638C154.84 81.5638 154.84 81.5638 154.84 81.5638C154.84 81.5638 154.84 81.5638 154.84 81.5638C154.84 81.5637 154.84 81.5637 154.84 81.5637C154.84 81.5637 154.84 81.5637 154.84 81.5637C154.84 81.5637 154.84 81.5637 154.84 81.5637C154.84 81.5637 154.84 81.5636 154.84 81.5636C154.84 81.5636 154.84 81.5636 154.84 81.5636C154.84 81.5636 154.84 81.5636 154.84 81.5636C154.84 81.5636 154.84 81.5636 154.84 81.5636C154.84 81.5635 154.84 81.5635 154.84 81.5635C154.84 81.5635 154.84 81.5635 154.84 81.5635C154.84 81.5635 154.84 81.5635 154.84 81.5635C154.84 81.5635 154.84 81.5634 154.84 81.5634C154.84 81.5634 154.84 81.5634 154.84 81.5634C154.84 81.5634 154.84 81.5634 154.84 81.5634C154.84 81.5634 154.84 81.5634 154.84 81.5634C154.84 81.5633 154.84 81.5633 154.84 81.5633C154.84 81.5633 154.84 81.5633 154.84 81.5633C154.84 81.5633 154.84 81.5633 154.84 81.5633C154.84 81.5633 154.84 81.5632 154.84 81.5632C154.84 81.5632 154.84 81.5632 154.84 81.5632C154.84 81.5632 154.84 81.5632 154.84 81.5632C154.84 81.5632 154.84 81.5632 154.84 81.5632C154.84 81.5631 154.84 81.5631 154.84 81.5631C154.84 81.5631 154.84 81.5631 154.84 81.5631C154.84 81.5631 154.84 81.5631 154.84 81.5631C154.84 81.5631 154.84 81.5631 154.84 81.5631C154.84 81.563 154.84 81.563 154.84 81.563C154.84 81.563 154.84 81.563 154.84 81.563C154.84 81.563 154.84 81.563 154.84 81.563C154.84 81.563 154.84 81.563 154.84 81.5629C154.84 81.5629 154.84 81.5629 154.84 81.5629C154.84 81.5629 154.84 81.5629 154.84 81.5629C154.84 81.5629 154.84 81.5629 154.84 81.5629C154.84 81.5629 154.84 81.5629 154.84 81.5628C154.84 81.5628 154.84 81.5628 154.84 81.5628C154.84 81.5628 154.84 81.5628 154.84 81.5628C154.84 81.5628 154.84 81.5628 154.84 81.5628C154.84 81.5628 154.84 81.5628 154.84 81.5627C154.84 81.5627 154.84 81.5627 154.84 81.5627C154.84 81.5627 154.84 81.5627 154.84 81.5627C154.84 81.5627 154.84 81.5627 154.84 81.5627C154.84 81.5627 154.84 81.5627 154.84 81.5626C154.84 81.5626 154.84 81.5626 154.84 81.5626C154.84 81.5626 154.84 81.5626 154.84 81.5626C154.84 81.5626 154.84 81.5626 154.84 81.5626C154.84 81.5626 154.84 81.5626 154.84 81.5626C154.84 81.5625 154.84 81.5625 154.84 81.5625C154.84 81.5625 154.84 81.5625 154.84 81.5625C154.84 81.5625 154.84 81.5625 154.84 81.5625C154.84 81.5625 154.84 81.5625 154.84 81.5625C154.84 81.5625 154.84 81.5624 154.84 81.5624C154.84 81.5624 154.84 81.5624 154.84 81.5624C154.84 81.5624 154.84 81.5624 154.84 81.5624C154.84 81.5624 154.84 81.5624 154.84 81.5624C154.84 81.5624 154.84 81.5624 154.84 81.5624C154.84 81.5623 154.84 81.5623 154.84 81.5623C154.84 81.5623 154.84 81.5623 154.84 81.5623C154.84 81.5623 154.84 81.5623 154.84 81.5623C154.84 81.5623 154.84 81.5623 154.84 81.5623C154.84 81.5623 154.84 81.5623 154.84 81.5622C154.84 81.5622 154.84 81.5622 154.84 81.5622C154.84 81.5622 154.84 81.5622 154.84 81.5622C154.84 81.5622 154.84 81.5622 154.84 81.5622C154.84 81.5622 154.84 81.5622 154.84 81.5622C154.84 81.5622 154.84 81.5621 154.84 81.5621C154.84 81.5621 154.84 81.5621 154.84 81.5621C154.84 81.5621 154.84 81.5621 154.84 81.5621C154.84 81.5621 154.84 81.5621 154.84 81.5621C154.84 81.5621 154.84 81.5621 154.84 81.5621C154.84 81.562 154.84 81.562 154.84 81.562C154.84 81.562 154.84 81.562 154.84 81.562C154.84 81.562 154.84 81.562 154.84 81.562C154.84 81.562 154.84 81.562 154.84 81.562C154.84 81.562 154.84 81.562 154.84 81.562C154.84 81.562 154.84 81.5619 154.84 81.5619C154.84 81.5619 154.84 81.5619 154.84 81.5619C154.84 81.5619 154.84 81.5619 154.84 81.5619C154.84 81.5619 154.84 81.5619 154.84 81.5619C154.84 81.5619 154.84 81.5619 154.84 81.5619C154.84 81.5619 154.84 81.5618 154.84 81.5618C154.84 81.5618 154.84 81.5618 154.84 81.5618C154.84 81.5618 154.84 81.5618 154.84 81.5618C154.84 81.5618 154.84 81.5618 154.84 81.5618C154.84 81.5618 154.84 81.5618 154.84 81.5618C154.84 81.5618 154.84 81.5618 154.84 81.5618C154.84 81.5617 154.84 81.5617 154.84 81.5617C154.84 81.5617 154.84 81.5617 154.84 81.5617C154.84 81.5617 154.84 81.5617 154.84 81.5617C154.84 81.5617 154.84 81.5617 154.84 81.5617C154.84 81.5617 154.84 81.5617 154.84 81.5617C154.84 81.5617 154.84 81.5617 154.84 81.5616C154.84 81.5616 154.84 81.5616 154.84 81.5616C154.84 81.5616 154.84 81.5616 154.84 81.5616C154.84 81.5616 154.84 81.5616 154.84 81.5616C154.84 81.5616 154.84 81.5616 154.84 81.5616C154.84 81.5616 154.84 81.5616 154.84 81.5616C154.84 81.5616 154.84 81.5615 154.84 81.5615C154.84 81.5615 154.84 81.5615 154.84 81.5615C154.84 81.5615 154.84 81.5615 154.84 81.5615C154.84 81.5615 154.84 81.5615 154.84 81.5615C154.84 81.5615 154.84 81.5615 154.84 81.5615C154.84 81.5615 154.84 81.5615 154.84 81.5615C154.84 81.5615 154.84 81.5615 154.84 81.5614C154.84 81.5614 154.84 81.5614 154.84 81.5614C154.84 81.5614 154.84 81.5614 154.84 81.5614C154.84 81.5614 154.84 81.5614 154.84 81.5614C154.84 81.5614 154.84 81.5614 154.84 81.5614C154.84 81.5614 154.84 81.5614 154.84 81.5614C154.84 81.5614 154.84 81.5614 154.84 81.5614C154.84 81.5613 154.84 81.5613 154.84 81.5613C154.84 81.5613 154.84 81.5613 154.84 81.5613C154.84 81.5613 154.84 81.5613 154.84 81.5613C154.84 81.5613 154.84 81.5613 154.84 81.5613C154.84 81.5613 154.84 81.5613 154.84 81.5613C154.84 81.5613 154.84 81.5613 154.84 81.5613C154.84 81.5613 154.84 81.5613 154.84 81.5613C154.84 81.5612 154.84 81.5612 154.84 81.5612C154.84 81.5612 154.84 81.5612 154.84 81.5612C154.84 81.5612 154.84 81.5612 154.84 81.5612C154.84 81.5612 154.84 81.5612 154.84 81.5612C154.84 81.5612 154.84 81.5612 154.84 81.5612C154.84 81.5612 154.84 81.5612 154.84 81.5612C154.84 81.5612 154.84 81.5612 154.84 81.5612C154.84 81.5611 154.84 81.5611 154.84 81.5611C154.84 81.5611 154.84 81.5611 154.84 81.5611C154.84 81.5611 154.84 81.5611 154.84 81.5611C154.84 81.5611 154.84 81.5611 154.84 81.5611C154.84 81.5611 154.84 81.5611 154.84 81.5611C154.84 81.5611 154.84 81.5611 154.84 81.5611C154.84 81.5611 154.84 81.5611 154.84 81.5611C154.84 81.5611 154.84 81.5611 154.84 81.561C154.84 81.561 154.84 81.561 154.84 81.561C154.84 81.561 154.84 81.561 154.84 81.561C154.84 81.561 154.84 81.561 154.84 81.561C154.84 81.561 154.84 81.561 154.84 81.561C154.84 81.561 154.84 81.561 154.84 81.561C154.84 81.561 154.84 81.561 154.84 81.561C154.84 81.561 154.84 81.561 154.84 81.561C154.84 81.561 154.84 81.561 154.84 81.561C154.84 81.5609 154.84 81.5609 154.84 81.5609C154.84 81.5609 154.84 81.5609 154.84 81.5609C154.84 81.5609 154.84 81.5609 154.84 81.5609C154.84 81.5609 154.84 81.5609 154.84 81.5609C154.84 81.5609 154.84 81.5609 154.84 81.5609C154.84 81.5609 154.84 81.5609 154.84 81.5609C154.84 81.5609 154.84 81.5609 154.84 81.5609C154.84 81.5609 154.84 81.5609 154.84 81.5609C154.84 81.5609 154.84 81.5609 154.84 81.5608C154.84 81.5608 154.84 81.5608 154.84 81.5608C154.84 81.5608 154.84 81.5608 154.84 81.5608C154.84 81.5608 154.84 81.5608 154.84 81.5608C154.84 81.5608 154.84 81.5608 154.84 81.5608C154.84 81.5608 154.84 81.5608 154.84 81.5608C154.84 81.5608 154.84 81.5608 154.84 81.5608C154.84 81.5608 154.84 81.5608 154.84 81.5608C154.84 81.5608 154.84 81.5608 154.84 81.5608C154.84 81.5608 154.84 81.5608 154.84 81.5608C154.84 81.5608 154.84 81.5607 154.84 81.5607C154.84 81.5607 154.84 81.5607 154.84 81.5607C154.84 81.5607 154.84 81.5607 154.84 81.5607C154.84 81.5607 154.84 81.5607 154.84 81.5607C154.84 81.5607 154.84 81.5607 154.84 81.5607C154.84 81.5607 154.84 81.5607 154.84 81.5607C154.84 81.5607 154.84 81.5607 154.84 81.5607C154.84 81.5607 154.84 81.5607 154.84 81.5607C154.84 81.5607 154.84 81.5607 154.84 81.5607C154.84 81.5607 154.84 81.5607 154.84 81.5607C154.84 81.5607 154.84 81.5607 154.84 81.5606C154.84 81.5606 154.84 81.5606 154.84 81.5606C154.84 81.5606 154.84 81.5606 154.84 81.5606C154.84 81.5606 154.84 81.5606 154.84 81.5606C154.84 81.5606 154.84 81.5606 154.84 81.5606C154.84 81.5606 154.84 81.5606 154.84 81.5606C154.84 81.5606 154.84 81.5606 154.84 81.5606C154.84 81.5606 154.84 81.5606 154.84 81.5606C154.84 81.5606 154.84 81.5606 154.84 81.5606C154.84 81.5606 154.84 81.5606 154.84 81.5606C154.84 81.5606 154.84 81.5606 154.84 81.5606C154.84 81.5606 154.84 81.5606 154.84 81.5606C154.84 81.5606 154.84 81.5605 154.84 81.5605C154.84 81.5605 154.84 81.5605 154.84 81.5605C154.84 81.5605 154.84 81.5605 154.84 81.5605C154.84 81.5605 154.84 81.5605 154.84 81.5605C154.84 81.5605 154.84 81.5605 154.84 81.5605C154.84 81.5605 154.84 81.5605 154.84 81.5605C154.84 81.5605 154.84 81.5605 154.84 81.5605C154.84 81.5605 154.84 81.5605 154.84 81.5605C154.84 81.5605 154.84 81.5605 154.84 81.5605C154.84 81.5605 154.84 81.5605 154.84 81.5605C154.84 81.5605 154.84 81.5605 154.84 81.5605C154.84 81.5605 154.84 81.5605 154.84 81.5605C154.84 81.5605 154.84 81.5605 154.84 81.5605C154.84 81.5605 154.84 81.5605 154.84 81.5605C154.84 81.5604 154.84 81.5604 154.84 81.5604C154.84 81.5604 154.84 81.5604 154.84 81.5604C154.84 81.5604 154.84 81.5604 154.84 81.5604C154.84 81.5604 154.84 81.5604 154.84 81.5604C154.84 81.5604 154.84 81.5604 154.84 81.5604C154.84 81.5604 154.84 81.5604 154.84 81.5604C154.84 81.5604 154.84 81.5604 154.84 81.5604C154.84 81.5604 154.84 81.5604 154.84 81.5604C154.84 81.5604 154.84 81.5604 154.84 81.5604C154.84 81.5604 154.84 81.5604 154.84 81.5604C154.84 81.5604 154.84 81.5604 154.84 81.5604C154.84 81.5604 154.84 81.5604 154.84 81.5604C154.84 81.5604 154.84 81.5604 154.84 81.5604C154.84 81.5604 154.84 81.5604 154.84 81.5604C154.84 81.5604 154.84 81.5604 154.84 81.5604C154.84 81.5604 154.84 81.5604 154.84 81.5603C154.84 81.5603 154.84 81.5603 154.84 81.5603C154.84 81.5603 154.84 81.5603 154.84 81.5603C154.84 81.5603 154.84 81.5603 154.84 81.5603C154.84 81.5603 154.84 81.5603 154.84 81.5603C154.84 81.5603 154.84 81.5603 154.84 81.5603C154.84 81.5603 154.84 81.5603 154.84 81.5603C154.84 81.5603 154.84 81.5603 154.84 81.5603C154.84 81.5603 154.84 81.5603 154.84 81.5603C154.84 81.5603 154.84 81.5603 154.84 81.5603C154.84 81.5603 154.84 81.5603 154.84 81.5603C154.84 81.5603 154.84 81.5603 154.84 81.5603C154.84 81.5603 154.84 81.5603 154.84 81.5603C154.84 81.5603 154.84 81.5603 154.84 81.5603C154.84 81.5603 154.84 81.5603 154.84 81.5603C154.84 81.5603 154.84 81.5603 154.84 81.5603C154.84 81.5603 154.84 81.5603 154.84 81.5603C154.84 81.5603 154.84 81.5603 154.84 81.5603C154.84 81.5603 154.84 81.5603 154.84 81.5603C154.84 81.5603 154.84 81.5603 154.84 81.5603C154.84 81.5603 154.84 81.5602 154.84 81.5602C154.84 81.5602 154.84 81.5602 154.84 81.5602C154.84 81.5602 154.84 81.5602 154.84 81.5602C154.84 81.5602 154.84 81.5602 154.84 81.5602C154.84 81.5602 154.84 81.5602 154.84 81.5602C154.84 81.5602 154.84 81.5602 154.84 81.5602C154.84 81.5602 154.84 81.5602 154.84 81.5602C154.84 81.5602 154.84 81.5602 154.84 81.5602C154.84 81.5602 154.84 81.5602 154.84 81.5602C154.84 81.5602 154.84 81.5602 154.84 81.5602C154.84 81.5602 154.84 81.5602 154.84 81.5602C154.84 81.5602 154.84 81.5602 154.84 81.5602C154.84 81.5602 154.84 81.5602 154.84 81.5602C154.84 81.5602 154.84 81.5602 154.84 81.5602C154.84 81.5602 154.84 81.5602 154.84 81.5602C154.84 81.5602 154.84 81.5602 154.84 81.5602C154.84 81.5602 154.84 81.5602 154.84 81.5602C154.84 81.5602 154.84 81.5602 154.84 81.5602C154.84 81.5602 154.84 81.5602 154.84 81.5602C154.84 81.5602 154.84 81.5602 154.84 81.5602C154.84 81.5602 154.84 81.5602 154.84 81.5602C154.84 81.5602 154.84 81.5602 154.84 81.5602C154.84 81.5602 154.84 81.5602 154.84 81.5602C154.84 81.5602 154.84 81.5602 154.84 81.5602C154.84 81.5602 154.84 81.5602 154.84 81.5602C154.84 81.5602 154.84 81.5602 154.84 81.5602C154.84 81.5602 154.84 81.5602 154.84 81.5602C154.84 81.5602 154.84 81.5602 154.84 81.5602C154.84 81.5602 154.84 81.5601 154.84 81.5601C154.84 81.5601 154.84 81.5601 154.84 81.5601C154.84 81.5601 154.84 81.5601 154.84 81.5601C154.84 81.5601 154.84 81.5601 154.84 81.5601C154.84 81.5601 154.84 81.5601 154.84 81.5601C154.84 81.5601 154.84 81.5601 154.84 81.5601C154.84 81.5601 154.84 81.5601 154.84 81.5601C154.84 81.5601 154.84 81.5601 154.84 81.5601C154.84 81.5601 154.84 81.5601 154.84 81.5601C154.84 81.5601 154.84 81.5601 154.84 81.5601C154.84 81.5601 154.84 81.5601 154.84 81.5601C154.84 81.5601 154.84 81.5601 154.84 81.5601C154.84 81.5601 154.84 81.5601 154.84 81.5601C154.84 81.5601 154.84 81.5601 154.84 81.5601C154.84 81.5601 154.84 81.5601 154.84 81.5601C154.84 81.5601 154.84 81.5601 154.84 81.5601C154.84 81.5601 154.84 81.5601 154.84 81.5601C154.84 81.5601 154.84 81.5601 154.84 81.5601C154.84 81.5601 154.84 81.5601 154.84 81.5601C154.84 81.5601 154.84 81.5601 154.84 81.5601C154.84 81.5601 154.84 81.5601 154.84 81.5601C154.84 81.5601 154.84 81.5601 154.84 81.5601C154.84 81.5601 154.84 81.5601 154.84 81.5601C154.84 81.5601 154.84 81.5601 154.84 81.5601C154.84 81.5601 154.84 81.5601 154.84 81.5601C154.84 81.5601 154.84 81.5601 154.84 81.5601C154.84 81.5601 154.84 81.5601 154.84 81.5601C154.84 81.5601 154.84 81.5601 154.84 81.5601C154.84 81.5601 154.84 81.5601 154.84 81.5601C154.84 81.5601 154.84 81.5601 154.84 81.5601C154.84 81.5601 154.84 81.5601 154.84 81.5601C154.84 81.5601 154.84 81.5601 154.84 81.5601C154.84 81.5601 154.84 81.5601 154.84 81.5601C154.84 81.5601 154.84 81.5601 154.84 81.5601C154.84 81.5601 154.84 81.5601 154.84 81.5601C154.84 81.5601 154.84 81.5601 154.84 81.5601C154.84 81.5601 154.84 81.5601 154.84 81.5601C154.84 81.5601 154.84 81.5601 154.84 81.5601C154.84 81.5601 154.84 81.5601 154.84 81.5601C154.84 81.5601 154.84 81.5601 154.84 81.5601C154.84 81.5601 154.84 81.5601 154.84 81.5601C154.84 81.5601 154.84 81.5601 154.84 81.5601C154.84 81.5601 154.84 81.5601 154.84 81.5601C154.84 81.5601 154.84 81.5601 154.84 81.5601C154.84 81.5601 154.84 81.5601 154.84 81.5601C154.84 81.5601 154.84 81.5601 154.84 81.5601C154.84 81.5601 154.84 81.5601 154.84 81.5601C154.84 81.5601 154.84 81.5601 154.84 81.5601C154.84 81.5601 154.84 81.5601 154.84 81.5601C154.84 81.5601 154.84 81.5601 154.84 81.5601C154.84 81.5601 154.84 81.5601 154.84 81.5601C154.84 81.5601 154.84 81.5601 154.84 81.5601C154.84 81.5601 154.84 81.5601 154.84 81.5601C154.84 81.5601 154.84 81.5601 154.84 81.5601C154.84 81.5601 154.84 81.5601 154.84 81.5601C154.84 81.5601 154.84 81.5601 154.84 81.5601C154.84 81.5601 154.84 81.5601 154.84 81.5601C154.84 81.5601 154.84 81.5601 154.84 81.5601C154.84 81.5601 154.84 81.5601 154.84 81.5601C154.84 81.5601 154.84 81.5601 154.84 81.5601C154.84 81.5601 154.84 81.5601 154.84 81.5601C154.84 81.5601 154.84 81.5601 154.84 81.5601C154.84 81.5601 154.84 81.5601 154.84 81.5601C154.84 81.5601 154.84 81.5601 154.84 81.5601C154.84 81.5601 154.84 81.5601 154.84 81.5601C154.84 81.5601 154.84 81.5601 154.84 81.5601C154.84 81.5601 154.84 81.5601 154.84 81.5601C154.84 81.5601 154.84 81.5601 154.84 81.5601C154.84 81.5601 154.84 81.56 154.84 81.56C154.84 81.56 154.84 81.56 154.84 81.56C154.84 81.56 154.84 81.56 154.84 81.56C154.84 81.56 154.84 81.56 154.84 81.56C154.84 81.56 154.84 81.56 154.84 81.56C154.84 81.56 154.84 81.56 154.84 81.56C154.84 81.56 154.84 81.56 154.84 81.56C154.84 81.56 154.84 81.56 154.84 81.56C154.84 81.56 154.84 81.56 154.84 81.56C154.84 81.56 154.84 81.56 154.84 81.56C154.84 81.56 154.84 81.56 154.84 81.56C154.84 81.56 154.84 81.56 154.84 81.56C154.84 81.56 154.84 81.56 154.84 81.56C154.84 81.56 154.84 81.56 154.84 81.56C154.84 81.56 154.84 81.56 154.84 81.56C154.84 81.56 154.84 81.56 154.84 81.56C154.84 81.56 154.84 81.56 154.84 81.56C154.84 81.56 154.84 81.56 154.84 81.56C154.84 81.56 154.84 81.56 154.84 81.56C154.84 81.56 154.84 81.56 154.84 81.56C154.84 81.56 154.84 81.56 154.84 81.56C154.84 81.56 154.84 81.56 154.84 81.56C154.84 81.56 154.84 81.56 154.84 81.56C154.84 81.56 154.84 81.56 154.84 81.56C154.84 81.56 154.84 81.56 154.84 81.56C154.84 81.56 154.84 81.56 154.84 81.56C154.84 81.56 154.84 81.56 154.84 81.56C154.84 81.56 154.84 81.56 154.84 81.56C154.84 81.56 154.84 81.56 154.84 81.56C154.84 81.56 154.84 81.56 154.84 81.56C154.84 81.56 154.84 81.56 154.84 81.56C154.84 81.56 154.84 81.56 154.84 81.56C154.84 81.56 154.84 81.56 154.84 81.56C154.84 81.56 154.84 81.56 154.84 81.56C154.84 81.56 154.84 81.56 154.84 81.56C154.84 81.56 154.84 81.56 154.84 81.56C154.84 81.56 154.84 81.56 154.84 81.56C154.84 81.56 154.84 81.56 154.84 81.56C154.84 81.56 154.84 81.56 154.84 81.56C154.84 81.56 154.84 81.56 154.84 81.56C154.84 81.56 154.84 81.56 154.84 81.56C154.84 81.56 154.84 81.56 154.84 81.56C154.84 81.56 154.84 81.56 154.84 81.56C154.84 81.56 154.84 81.56 154.84 81.56C154.84 81.56 154.84 81.56 153.84 81.56ZM152.84 81.57C152.84 81.9072 153.004 82.1308 153.067 82.2081C153.138 82.2956 153.209 82.3516 153.227 82.3659C153.241 82.3771 153.278 82.4054 153.255 82.388C153.254 82.3871 153.211 82.3554 153.163 82.3072L154.577 80.8929C154.524 80.8397 154.475 80.803 154.467 80.7971C154.438 80.7747 154.468 80.798 154.476 80.8042C154.488 80.8135 154.552 80.8645 154.619 80.947C154.678 81.0193 154.84 81.2379 154.84 81.57H152.84ZM154.727 81.0855L154.697 81.0355L152.983 82.0646L153.013 82.1146L154.727 81.0855ZM152.84 81.55V81.56H154.84V81.55H152.84Z" fill="#D3AE29" mask="url(#path-3-inside-2_160_5254)"/>
</svg>
